<svg xmlns="http://www.w3.org/2000/svg" version="1.1" xmlns:xlink="http://www.w3.org/1999/xlink" xmlns:svgjs="http://svgjs.com/svgjs" width="512" height="512" x="0" y="0" viewBox="0 0 32 32" style="enable-background:new 0 0 512 512" xml:space="preserve"><g><path fill="#282828" fill-rule="nonzero" d="M27 3c1.598 0 3 1.249 3 3 .002 4.667.002 9.333 0 14 0 1.598-1.249 2.995-3 3-4.844.002-9.688.002-14.532 0l-4.702 5.64c-.574.689-1.768.328-1.768-.64L6 23H5c-1.598 0-3-1.249-3-3V6c0-1.598 1.249-2.995 3-3 7.333-.002 14.667-.002 22 0zM16 16H8c-.614.007-1 .487-1 1s.386.993 1.005 1c2.663.002 5.328.002 7.995 0a.99.99 0 0 0 1-1 1 1 0 0 0-1-1zm4-4H8c-.614.007-1 .487-1 1s.386.993 1 1h12a.99.99 0 0 0 1-1 1 1 0 0 0-1-1zm4-4H8a.99.99 0 0 0-1 1 1 1 0 0 0 1 1c5.338.002 10.672.002 16 0a.99.99 0 0 0 1-1 1 1 0 0 0-1-1z" data-original="#000000"></path></g></svg>