<svg xmlns="http://www.w3.org/2000/svg" version="1.1" xmlns:xlink="http://www.w3.org/1999/xlink" xmlns:svgjs="http://svgjs.com/svgjs" width="512" height="512" x="0" y="0" viewBox="0 0 261.075 261.075" style="enable-background:new 0 0 512 512" xml:space="preserve"><g><path d="M126.855 174.05h5.744c22.447 0 40.641-18.194 40.641-40.641V40.641C173.24 18.194 155.046 0 132.599 0h-5.744c-22.447 0-40.641 18.194-40.641 40.641v92.769c.001 22.446 18.194 40.64 40.641 40.64z" style="" fill="#282828" data-original="#010002"></path><path d="M124.288 201.147v43.61H86.215c-4.504 0-8.159 3.65-8.159 8.159s3.655 8.159 8.159 8.159h92.464c4.504 0 8.159-3.65 8.159-8.159s-3.655-8.159-8.159-8.159h-38.073v-43.823c34.832-3.138 63.262-34.44 63.262-71.208 0-4.509-3.655-8.159-8.159-8.159s-8.159 3.65-8.159 8.159c0 29.92-24.122 55.201-52.672 55.201h-8.686c-28.544 0-52.666-24.699-52.666-53.939 0-4.509-3.655-8.159-8.159-8.159s-8.159 3.65-8.159 8.159c0 38.085 29.926 69.121 67.08 70.159z" style="" fill="#282828" data-original="#010002"></path></g></svg>