<svg xmlns="http://www.w3.org/2000/svg" version="1.1" xmlns:xlink="http://www.w3.org/1999/xlink" xmlns:svgjs="http://svgjs.com/svgjs" width="512" height="512" x="0" y="0" viewBox="0 0 35 35" style="enable-background:new 0 0 512 512" xml:space="preserve"><g><path d="M25.5 1.75c-4.411 0-8 3.589-8 8v4.5H5c-1.93 0-3.5 1.57-3.5 3.5v12c0 1.93 1.57 3.5 3.5 3.5h17c1.93 0 3.5-1.57 3.5-3.5v-12c0-1.93-1.57-3.5-3.5-3.5h-1.5v-4.5c0-2.757 2.243-5 5-5s5 2.243 5 5v3.5a1.5 1.5 0 0 0 3 0v-3.5c0-4.411-3.589-8-8-8zm-17 23.51c-.83 0-1.5-.67-1.5-1.5s.67-1.5 1.5-1.5 1.5.67 1.5 1.5-.67 1.5-1.5 1.5zm5.5 0c-.83 0-1.5-.67-1.5-1.5s.67-1.5 1.5-1.5 1.5.67 1.5 1.5-.67 1.5-1.5 1.5zm7-1.5c0 .83-.67 1.5-1.5 1.5s-1.5-.67-1.5-1.5.67-1.5 1.5-1.5 1.5.67 1.5 1.5z" fill="#282828" data-original="#000000"></path></g></svg>