<svg xmlns="http://www.w3.org/2000/svg" version="1.1" xmlns:xlink="http://www.w3.org/1999/xlink" xmlns:svgjs="http://svgjs.com/svgjs" width="512" height="512" x="0" y="0" viewBox="0 0 512 512" style="enable-background:new 0 0 512 512" xml:space="preserve"><g><path d="M266.667 448.555V254.037C279.061 249.621 288 237.909 288 224c0-17.664-14.336-32-32-32s-32 14.336-32 32c0 13.909 8.939 25.643 21.333 30.037v194.517C196.096 451.371 160 472.981 160 501.333c0 5.888 4.779 10.667 10.667 10.667h170.667c5.888 0 10.667-4.779 10.667-10.667-.001-28.352-36.097-49.962-85.334-52.778z" fill="#282828" data-original="#000000"></path><path d="M405.333 0H106.667C77.269 0 53.333 23.936 53.333 53.333v128c0 29.397 23.936 53.333 53.333 53.333h97.088a53.369 53.369 0 0 1-1.088-10.667c0-29.397 23.936-53.333 53.333-53.333s53.333 23.936 53.333 53.333c0 3.648-.384 7.211-1.088 10.667h97.088c29.419 0 53.333-23.936 53.333-53.333v-128C458.667 23.936 434.752 0 405.333 0zm-64 128H170.667c-5.888 0-10.667-4.779-10.667-10.667s4.779-10.667 10.667-10.667h170.667c5.888 0 10.667 4.779 10.667 10.667S347.221 128 341.333 128zM384 85.333H128c-5.888 0-10.667-4.779-10.667-10.667S122.112 64 128 64h256c5.888 0 10.667 4.779 10.667 10.667S389.888 85.333 384 85.333z" fill="#282828" data-original="#000000"></path></g></svg>