<?xml version="1.0" encoding="iso-8859-1"?>
<!-- Generator: Adobe Illustrator 19.0.0, SVG Export Plug-In . SVG Version: 6.00 Build 0)  -->
<svg version="1.1" id="Capa_1" xmlns="http://www.w3.org/2000/svg" xmlns:xlink="http://www.w3.org/1999/xlink" x="0px" y="0px"
	 viewBox="0 0 495.787 495.787" style="enable-background:new 0 0 495.787 495.787;" xml:space="preserve">
<g>
	<g>
		<path d="M247.893,0C110.986,0,0,110.986,0,247.893c0.118,136.859,111.034,247.776,247.893,247.893
			c136.908,0,247.893-110.986,247.893-247.893S384.801,0,247.893,0z M247.893,474.453c-125.126,0-226.56-101.434-226.56-226.56
			c0.118-125.077,101.483-226.442,226.56-226.56c125.126,0,226.56,101.434,226.56,226.56S373.019,474.453,247.893,474.453z"/>
	</g>
</g>
<g>
	<g>
		<path d="M297.6,216.96c26.507-16.637,42.618-45.717,42.667-77.013v-13.653H361.6V104.96H134.4v21.333h21.333v13.653
			c0.089,31.286,16.19,60.347,42.667,77.013c11.426,7.586,20.395,18.334,25.813,30.933c-5.397,12.612-14.371,23.366-25.813,30.933
			c-26.443,16.597-42.545,45.58-42.667,76.8v13.653H134.4v21.333h194.347v0.213h32.427v-21.333H339.84V355.84
			c-0.122-31.22-16.223-60.203-42.667-76.8c-11.518-7.576-20.508-18.422-25.813-31.147
			C276.839,235.204,285.974,224.435,297.6,216.96z M249.813,244.48c-0.847,2.344-0.847,4.91,0,7.253
			c6.745,18.733,19.496,34.709,36.267,45.44c20.013,12.883,32.076,35.08,32,58.88v13.653H177.493V355.84
			c0.057-23.873,12.281-46.07,32.427-58.88c16.501-10.828,29.07-26.688,35.84-45.227c0.847-2.344,0.847-4.91,0-7.253
			c-6.784-18.531-19.35-34.388-35.84-45.227c-20.273-12.891-32.516-35.282-32.427-59.307v-13.653H318.08v13.653
			c0.109,23.866-11.954,46.142-32,59.093C269.32,209.783,256.573,225.755,249.813,244.48z"/>
	</g>
</g>
<g>
</g>
<g>
</g>
<g>
</g>
<g>
</g>
<g>
</g>
<g>
</g>
<g>
</g>
<g>
</g>
<g>
</g>
<g>
</g>
<g>
</g>
<g>
</g>
<g>
</g>
<g>
</g>
<g>
</g>
</svg>
