<svg id="Capa_1" enable-background="new 0 0 512 512" height="512" viewBox="0 0 512 512" width="512" xmlns="http://www.w3.org/2000/svg"><g><path d="m256 121c-74.439 0-135 60.561-135 135s60.561 135 135 135 135-60.561 135-135-60.561-135-135-135zm-42.427 113.787 31.82 31.819 53.033-53.032 21.213 21.213-74.246 74.245-53.033-53.032z"/><path d="m30 256c0-40.378 10.772-79.998 31.152-114.576 14.374-24.389 33.248-45.848 55.416-63.26l-6.948 56.592 29.776 3.656 12.796-104.218-104.216-12.797-3.656 29.776 50.227 6.167c-23.591 19.202-43.725 42.527-59.239 68.85-23.099 39.192-35.308 84.079-35.308 129.81 0 68.38 26.628 132.667 74.98 181.02 48.353 48.351 112.64 74.98 181.02 74.98v-30c-60.367 0-117.121-23.508-159.806-66.194-42.686-42.686-66.194-99.439-66.194-159.806z"/><path d="m476.692 385.81c23.099-39.192 35.308-84.079 35.308-129.81 0-68.38-26.628-132.667-74.98-181.02-48.353-48.351-112.64-74.98-181.02-74.98v30c60.367 0 117.121 23.508 159.806 66.194 42.686 42.686 66.194 99.439 66.194 159.806 0 40.378-10.772 79.998-31.152 114.576-14.374 24.389-33.248 45.848-55.416 63.26l6.948-56.592-29.776-3.656-12.796 104.218 104.217 12.797 3.656-29.776-50.227-6.167c23.59-19.202 43.724-42.527 59.238-68.85z"/></g></svg>