<svg xmlns="http://www.w3.org/2000/svg" version="1.1" xmlns:xlink="http://www.w3.org/1999/xlink" xmlns:svgjs="http://svgjs.com/svgjs" width="512" height="512" x="0" y="0" viewBox="0 0 64 64" style="enable-background:new 0 0 512 512" xml:space="preserve" class=""><g><path fill="#db1e24" d="M53 24.267C53 42.633 32 61 32 61S11 42.633 11 24.267a21 21 0 1 1 42 0z" data-original="#fa4b4b" class=""></path><path fill="#db1e24" d="M19.625 46.953A86.778 86.778 0 0 0 32 61s17.6-15.4 20.567-32.1c-8.144 9.04-20.061 15.6-32.942 18.053z" data-original="#dc3c46" class=""></path><circle cx="32" cy="24" r="17" fill="#eeeeee" data-original="#eeeeee"></circle><g fill="#ad2a37"><path d="M30 22c0 .188 0 .382-.582.673L28 23.382V14h-2v9.382l-1.418-.709C24 22.382 24 22.188 24 22v-8h-2v8a2.7 2.7 0 0 0 1.687 2.462l1.948.974a3 3 0 0 0 .365.131V36h2V25.567a3 3 0 0 0 .365-.131l1.947-.974A2.7 2.7 0 0 0 32 22v-8h-2zM44 20c0-3.31-2.24-6-5-6s-5 2.69-5 6c0 2.9 1.719 5.322 4 5.879V36h2V25.879c2.281-.557 4-2.979 4-5.879z" fill="#db1e24" data-original="#ad2a37" class=""></path></g></g></svg>