<svg xmlns="http://www.w3.org/2000/svg" version="1.1" xmlns:xlink="http://www.w3.org/1999/xlink" xmlns:svgjs="http://svgjs.com/svgjs" width="512" height="512" x="0" y="0" viewBox="0 0 512 512" style="enable-background:new 0 0 512 512" xml:space="preserve"><g><path d="M416.562 191.249A64.751 64.751 0 1 0 481.313 256a64.824 64.824 0 0 0-64.751-64.751Zm32.492 52.686-36.349 34.311a7 7 0 0 1-9.82-.207l-19.024-19.533a7 7 0 1 1 10.029-9.768l14.216 14.6 31.337-29.58a7 7 0 0 1 9.611 10.181ZM170 256a7 7 0 0 0 7 7h131.1l-24.711 24.711a7 7 0 0 0 9.9 9.9L329.9 261a7 7 0 0 0 .943-1.144 6.636 6.636 0 0 0 .35-.593c0-.009-.232-.018-.228-.027a1.183 1.183 0 0 0 .036-.6c1-.813.516-1.7.516-2.632s.484-1.819-.516-2.632a1.183 1.183 0 0 0-.036-.6c0-.009.113-.092.108-.1-.108-.2-.164-.667-.29-.667h.03c-.273 0-.575-.724-.928-1.07l-36.607-36.578a7.008 7.008 0 0 0-9.894 9.927L308.1 249H177a7 7 0 0 0-7 7Z" fill="#282828" data-original="#000000"></path><rect width="109" height="109" x="31" y="201" rx="7" fill="#282828" data-original="#000000"></rect><path d="m328.729 420.083-35.445-35.445a7 7 0 1 0-9.9 9.9L307.847 419H177a7 7 0 0 0 0 14h131.345l-24.96 24.96a7 7 0 0 0 9.9 9.9l36.66-36.66a6.973 6.973 0 0 0 2.047-5.034c0-.056.008-.109.008-.165a6.989 6.989 0 0 0-3.271-5.918ZM415.687 361.5a64.751 64.751 0 1 0 64.751 64.751 64.824 64.824 0 0 0-64.751-64.751Zm22.358 76.772a7 7 0 1 1-9.9 9.9l-12.021-12.021-12.024 12.018a7 7 0 0 1-9.9-9.9l12.021-12.021-12.021-12.02a7 7 0 0 1 9.9-9.9l12.021 12.021 12.021-12.021a7 7 0 0 1 9.9 9.9l-12.021 12.021Z" fill="#282828" data-original="#000000"></path><rect width="109" height="109" x="31" y="372" rx="7" fill="#282828" data-original="#000000"></rect><path d="m329.945 80.8-36.661-36.66a7 7 0 0 0-9.9 9.9L308.345 79H177a7 7 0 0 0 0 14h130.847l-24.462 24.462a7 7 0 0 0 9.9 9.9l35.445-35.445A6.989 6.989 0 0 0 332 86c0-.056-.007-.109-.008-.165a6.973 6.973 0 0 0-2.047-5.035ZM415.687 150.5a64.751 64.751 0 1 0-64.751-64.751 64.824 64.824 0 0 0 64.751 64.751ZM394.2 73.73a7 7 0 0 1 9.9-9.9l12.021 12.021 12.021-12.021a7 7 0 0 1 9.9 9.9l-12.018 12.021 12.021 12.021a7 7 0 1 1-9.9 9.9l-12.02-12.022-12.025 12.021a7 7 0 0 1-9.9-9.9l12.021-12.021Z" fill="#282828" data-original="#000000"></path><rect width="109" height="109" x="31" y="31" rx="7" fill="#282828" data-original="#000000"></rect></g></svg>