<svg id="Layer_1" enable-background="new 0 0 28 28" height="512" viewBox="0 0 28 28" width="512" xmlns="http://www.w3.org/2000/svg"><g><path d="m25.61998 20.86375-8.44995-16.89997c-1.30005-2.61005-5.04004-2.61005-6.34003 0l-8.45001 16.89997c-1.17999 2.35004.53003 5.13 3.17004 5.13h16.89997c2.64001 0 4.35003-2.77997 3.16998-5.13zm-11.62 1.61999c-.89996 0-1.63995-.72998-1.63995-1.63995 0-.90002.73999-1.63 1.63995-1.63.90002 0 1.64001.72998 1.64001 1.63.00001.90997-.73998 1.63995-1.64001 1.63995zm1.89002-11.95996-.51001 5.69c-.06.70996-.65997 1.26001-1.38 1.26001-.71997 0-1.31995-.55005-1.38-1.26001l-.50995-5.69c-.10004-1.11005.76996-2.07001 1.88995-2.07001 1.06 0 1.90002.85999 1.90002 1.89996 0 .05006 0 .11005-.01001.17005z"/></g></svg>