<?xml version="1.0" encoding="iso-8859-1"?>
<!-- Generator: Adobe Illustrator 19.0.0, SVG Export Plug-In . SVG Version: 6.00 Build 0)  -->
<svg version="1.1" id="Capa_1" xmlns="http://www.w3.org/2000/svg" xmlns:xlink="http://www.w3.org/1999/xlink" x="0px" y="0px"
	 viewBox="0 0 512 512" style="enable-background:new 0 0 512 512;" xml:space="preserve">
<g>
	<g>
		<path d="M266.667,448.555V254.037C279.061,249.621,288,237.909,288,224c0-17.664-14.336-32-32-32s-32,14.336-32,32
			c0,13.909,8.939,25.643,21.333,30.037v194.517C196.096,451.371,160,472.981,160,501.333c0,5.888,4.779,10.667,10.667,10.667
			h170.667c5.888,0,10.667-4.779,10.667-10.667C352,472.981,315.904,451.371,266.667,448.555z"/>
	</g>
</g>
<g>
	<g>
		<path d="M405.333,0H106.667C77.269,0,53.333,23.936,53.333,53.333v128c0,29.397,23.936,53.333,53.333,53.333h97.088
			c-0.704-3.456-1.088-7.019-1.088-10.667c0-29.397,23.936-53.333,53.333-53.333s53.333,23.936,53.333,53.333
			c0,3.648-0.384,7.211-1.088,10.667h97.088c29.419,0,53.333-23.936,53.333-53.333v-128C458.667,23.936,434.752,0,405.333,0z
			 M341.333,128H170.667c-5.888,0-10.667-4.779-10.667-10.667s4.779-10.667,10.667-10.667h170.667
			c5.888,0,10.667,4.779,10.667,10.667S347.221,128,341.333,128z M384,85.333H128c-5.888,0-10.667-4.779-10.667-10.667
			S122.112,64,128,64h256c5.888,0,10.667,4.779,10.667,10.667S389.888,85.333,384,85.333z"/>
	</g>
</g>
<g>
</g>
<g>
</g>
<g>
</g>
<g>
</g>
<g>
</g>
<g>
</g>
<g>
</g>
<g>
</g>
<g>
</g>
<g>
</g>
<g>
</g>
<g>
</g>
<g>
</g>
<g>
</g>
<g>
</g>
</svg>
