<svg id="Layer_2" enable-background="new 0 0 32 32" height="512" viewBox="0 0 32 32" width="512" xmlns="http://www.w3.org/2000/svg"><g><path d="m1.07001 32h29.85999c.59002 0 1.07-.48004 1.07-1.07001 0-.59003-.47998-1.06-1.07001-1.06h-28.79999v-1.67999h13.87c.59003 0 1.07001-.48004 1.07001-1.07001v-5.38c0-.59003-.47998-1.06-1.07001-1.06h-13.87v-2.37h19.20001c.58997 0 1.07001-.47003 1.07001-1.06v-5.38c0-.59003-.48004-1.07001-1.07001-1.07001h-19.20001v-2.35998h24.53998c.59003 0 1.06-.48004 1.06-1.07001v-5.38c0-.59003-.46997-1.07001-1.06-1.07001h-24.57c-.06995-.51001-.48999-.91998-1.02997-.91998-.59003 0-1.07001.47998-1.07001 1.07001v29.85999c0 .58996.47998 1.07 1.07001 1.07z"/></g></svg>