<svg xmlns="http://www.w3.org/2000/svg" version="1.1" xmlns:xlink="http://www.w3.org/1999/xlink" xmlns:svgjs="http://svgjs.com/svgjs" width="512" height="512" x="0" y="0" viewBox="0 0 74 74" style="enable-background:new 0 0 512 512" xml:space="preserve"><g><path d="m33.52 9.29h-2.91a1 1 0 0 1 0-2h2.91a1 1 0 1 1 0 2z" fill="#282828" data-original="#000000"></path><path d="m17 66.71a1 1 0 0 1 -1-1v-11.42h-9a5.006 5.006 0 0 1 -5-5v-37a5.006 5.006 0 0 1 5-5h16.61a1 1 0 1 1 0 2h-16.61a3 3 0 0 0 -3 3v37a3 3 0 0 0 3 3h10a1 1 0 0 1 1 1v10.239l12.767-11a1 1 0 0 1 .653-.242h35.58a3 3 0 0 0 3-3v-37a3 3 0 0 0 -3-3h-16.51a1 1 0 0 1 0-2h16.51a5.006 5.006 0 0 1 5 5v37a5.006 5.006 0 0 1 -5 5h-35.209l-14.138 12.181a1 1 0 0 1 -.653.242z" fill="#282828" data-original="#000000"></path><path d="m43.49 9.29h-2.97a1 1 0 0 1 0-2h2.97a1 1 0 1 1 0 2z" fill="#282828" data-original="#000000"></path><path d="m59.75 22h-45.5a1 1 0 0 1 0-2h45.5a1 1 0 0 1 0 2z" fill="#282828" data-original="#000000"></path><path d="m59.75 32h-45.5a1 1 0 0 1 0-2h45.5a1 1 0 0 1 0 2z" fill="#282828" data-original="#000000"></path><path d="m59.75 42h-45.5a1 1 0 0 1 0-2h45.5a1 1 0 0 1 0 2z" fill="#282828" data-original="#000000"></path></g></svg>