<svg xmlns="http://www.w3.org/2000/svg" version="1.1" xmlns:xlink="http://www.w3.org/1999/xlink" xmlns:svgjs="http://svgjs.com/svgjs" width="512" height="512" x="0" y="0" viewBox="0 0 48 48" style="enable-background:new 0 0 512 512" xml:space="preserve"><g><g id="Chat"><path d="m42 1h-36a5.0059 5.0059 0 0 0 -5 5v25a5.0059 5.0059 0 0 0 5 5h2v8.998a1.9775 1.9775 0 0 0 1.3384 1.8872 2.0313 2.0313 0 0 0 .6733.1162 1.976 1.976 0 0 0 1.55-.7544l8.1983-10.247h22.24a5.0059 5.0059 0 0 0 5-5v-25a5.0059 5.0059 0 0 0 -5-5zm-31 9h13a1 1 0 0 1 0 2h-13a1 1 0 0 1 0-2zm26 14h-26a1 1 0 0 1 0-2h26a1 1 0 0 1 0 2zm0-6h-26a1 1 0 0 1 0-2h26a1 1 0 0 1 0 2z" fill="#ffffff" data-original="#000000"></path></g></g></svg>