<?xml version="1.0" standalone="no"?>
<!DOCTYPE svg PUBLIC "-//W3C//DTD SVG 20010904//EN"
 "http://www.w3.org/TR/2001/REC-SVG-20010904/DTD/svg10.dtd">
<svg version="1.0" xmlns="http://www.w3.org/2000/svg"
 width="512.000000pt" height="512.000000pt" viewBox="0 0 512.000000 512.000000"
 preserveAspectRatio="xMidYMid meet">
<metadata>
Created by potrace 1.16, written by Peter Selinger 2001-2019
</metadata>
<g transform="translate(0.000000,512.000000) scale(0.100000,-0.100000)"
fill="#000000" stroke="none">
<path d="M1381 5105 c-81 -23 -145 -62 -205 -125 -61 -64 -93 -120 -115 -204
l-16 -58 -71 -18 c-127 -32 -227 -97 -280 -181 -53 -85 -68 -211 -35 -306 l18
-52 -251 -3 c-222 -3 -255 -5 -286 -22 -49 -26 -88 -64 -113 -111 -21 -39 -22
-50 -22 -425 0 -356 1 -388 19 -420 26 -49 64 -88 111 -113 40 -22 40 -22 913
-25 l872 -2 0 -1440 0 -1440 -577 0 c-391 0 -591 4 -618 11 -54 15 -139 100
-154 154 -8 28 -11 368 -11 1138 l0 1097 -80 0 -80 0 2 -1122 3 -1123 22 -54
c45 -110 124 -190 231 -233 l57 -23 1840 0 c1745 0 1843 1 1891 18 162 56 258
189 271 374 l6 83 -82 0 -81 0 0 -57 c0 -32 -5 -76 -11 -98 -15 -54 -100 -139
-154 -154 -27 -7 -227 -11 -617 -11 l-577 0 -3 157 -3 158 -75 0 -75 0 -5
-155 -5 -155 -475 0 -475 0 -3 1438 -2 1437 480 0 480 0 2 -237 3 -238 75 0
75 0 3 238 2 237 280 0 280 0 0 80 0 80 -240 0 -240 0 0 400 0 400 280 0 280
0 0 -680 0 -680 -52 38 c-44 31 -60 37 -103 37 -73 0 -104 -26 -162 -140 -54
-107 -57 -109 -163 -80 -115 31 -180 11 -222 -67 -19 -36 -23 -59 -23 -138 0
-52 -4 -100 -8 -107 -4 -6 -43 -19 -86 -28 -44 -10 -96 -27 -118 -39 -85 -47
-95 -146 -28 -280 l40 -78 -50 -42 c-129 -108 -159 -160 -136 -238 12 -40 31
-60 146 -162 l40 -35 -40 -78 c-65 -129 -57 -230 21 -275 17 -10 69 -28 115
-39 46 -12 88 -25 94 -30 5 -5 10 -53 10 -107 0 -88 3 -101 28 -145 47 -80
100 -92 239 -56 44 11 83 17 86 14 3 -3 29 -49 57 -103 41 -79 57 -101 90
-119 22 -13 54 -23 70 -23 36 0 114 43 177 99 25 22 51 41 56 41 6 0 37 -23
70 -50 65 -54 133 -90 172 -90 65 0 124 61 175 180 28 68 31 69 100 54 151
-34 205 -28 248 29 38 51 50 101 43 181 -8 92 -1 101 93 121 192 40 234 128
149 308 l-42 89 39 35 c114 100 134 121 146 161 10 34 10 50 0 84 -12 40 -32
61 -146 161 l-39 35 42 89 c86 180 44 266 -150 308 -43 9 -81 22 -85 28 -4 7
-8 55 -8 107 0 85 -3 100 -27 141 -42 72 -131 98 -224 66 -22 -8 -54 -17 -72
-20 -33 -7 -34 -6 -64 61 -61 130 -113 182 -183 182 -30 0 -100 -33 -132 -63
l-23 -20 0 681 0 682 455 0 456 0 24 -25 25 -24 0 -351 0 -351 -25 -24 -24
-25 -256 0 -255 0 0 -80 0 -80 80 0 80 0 0 -200 0 -200 80 0 80 0 0 199 0 199
113 4 c123 4 167 19 218 75 65 70 64 60 64 483 0 356 -1 388 -19 420 -26 49
-64 88 -111 113 -37 21 -56 22 -291 25 l-251 3 18 52 c21 61 23 115 8 189 -32
148 -144 252 -320 297 l-74 19 -16 58 c-45 170 -180 300 -347 335 -68 14 -210
6 -297 -16 -231 -60 -406 -253 -490 -541 -14 -48 -27 -89 -28 -91 -2 -1 -20 2
-40 8 -42 11 -589 7 -622 -5 -18 -6 -22 1 -43 81 -12 48 -46 135 -74 193 -44
90 -65 118 -138 190 -129 130 -242 177 -440 186 -76 3 -120 0 -159 -11z m280
-163 c127 -34 233 -119 304 -246 32 -59 76 -176 90 -244 l7 -33 -64 42 c-199
129 -486 229 -710 246 -79 6 -79 6 -73 32 12 49 60 124 97 154 81 65 215 84
349 49z m2079 -11 c60 -31 117 -86 146 -143 37 -72 35 -74 -54 -81 -224 -17
-512 -117 -710 -246 l-64 -42 7 33 c4 18 18 67 32 108 91 270 263 404 508 397
71 -2 100 -8 135 -26z m-2462 -382 c258 -28 524 -135 739 -297 44 -33 63 -54
63 -69 l0 -23 -580 0 c-472 0 -587 3 -614 14 -99 41 -115 204 -29 290 85 84
205 109 421 85z m2813 1 c137 -26 228 -117 229 -228 0 -62 -25 -108 -75 -137
l-42 -25 -581 0 -582 0 0 23 c0 41 223 189 399 262 208 88 496 134 652 105z
m-1236 -255 c21 -20 25 -34 25 -80 l0 -55 -320 0 -320 0 0 55 c0 46 4 60 25
80 l24 25 271 0 271 0 24 -25z m-1015 -695 l0 -400 -815 0 -816 0 -24 25 -25
24 0 351 0 351 25 24 24 25 816 0 815 0 0 -400z m1280 0 l0 -400 -560 0 -560
0 0 400 0 400 560 0 560 0 0 -400z m623 -1089 c52 -48 115 -81 164 -88 50 -6
113 22 181 81 30 25 58 44 63 40 5 -3 24 -37 43 -77 18 -40 50 -88 70 -107 33
-31 43 -35 105 -38 45 -3 88 2 125 12 31 9 62 14 68 10 7 -4 9 -29 5 -68 -15
-162 49 -247 207 -275 33 -6 63 -14 68 -19 5 -5 -8 -44 -29 -88 -68 -143 -49
-222 74 -316 32 -24 58 -50 58 -58 0 -8 -26 -34 -58 -58 -123 -94 -142 -173
-74 -316 21 -44 34 -83 29 -88 -5 -5 -35 -13 -68 -19 -93 -16 -154 -54 -184
-114 -21 -43 -24 -62 -23 -137 1 -48 -2 -90 -7 -93 -5 -3 -38 2 -72 11 -38 10
-87 14 -125 12 -55 -3 -67 -8 -99 -38 -20 -19 -52 -67 -70 -107 -19 -40 -38
-74 -43 -78 -6 -3 -33 15 -62 41 -57 51 -119 83 -160 84 -48 0 -114 -30 -172
-80 -32 -28 -63 -47 -69 -44 -5 3 -24 38 -42 78 -21 45 -48 85 -74 109 -39 34
-46 37 -105 37 -35 0 -89 -7 -121 -15 -32 -8 -62 -13 -67 -10 -4 3 -8 45 -7
93 2 155 -47 217 -195 248 -40 9 -76 19 -81 24 -5 5 7 40 27 82 72 147 58 217
-64 314 -38 30 -69 59 -69 64 0 5 31 34 69 64 121 97 136 171 64 317 -21 43
-31 75 -26 80 5 5 36 14 69 20 92 16 154 54 183 113 21 41 24 62 23 137 -1 48
3 91 8 94 5 3 38 -2 72 -11 38 -10 87 -14 125 -12 55 3 67 8 99 38 19 19 49
64 66 100 30 63 46 90 54 90 3 0 23 -18 47 -39z"/>
<path d="M3620 2151 c-112 -36 -174 -119 -174 -231 0 -137 96 -234 234 -234
138 0 234 97 234 234 0 95 -44 169 -128 212 -43 22 -128 32 -166 19z m115
-176 c50 -49 15 -135 -55 -135 -41 0 -80 39 -80 80 0 41 39 80 80 80 19 0 40
-9 55 -25z"/>
<path d="M3860 1575 l-475 -475 58 -57 57 -58 477 477 478 478 -55 55 c-30 30
-57 55 -60 55 -3 0 -219 -214 -480 -475z"/>
<path d="M4100 1351 c-112 -36 -174 -119 -174 -231 0 -137 96 -234 234 -234
138 0 234 97 234 234 0 95 -44 169 -128 212 -43 22 -128 32 -166 19z m115
-176 c50 -49 15 -135 -55 -135 -41 0 -80 39 -80 80 0 41 39 80 80 80 19 0 40
-9 55 -25z"/>
<path d="M4080 3120 l0 -80 80 0 80 0 0 80 0 80 -80 0 -80 0 0 -80z"/>
<path d="M400 2800 l0 -80 80 0 80 0 0 80 0 80 -80 0 -80 0 0 -80z"/>
</g>
</svg>
