<?xml version="1.0" encoding="UTF-8"?>
<!DOCTYPE svg PUBLIC "-//W3C//DTD SVG 1.1//EN" "http://www.w3.org/Graphics/SVG/1.1/DTD/svg11.dtd">
<svg xmlns="http://www.w3.org/2000/svg" version="1.1" width="150px" height="150px" style="shape-rendering:geometricPrecision; text-rendering:geometricPrecision; image-rendering:optimizeQuality; fill-rule:evenodd; clip-rule:evenodd" xmlns:xlink="http://www.w3.org/1999/xlink">
<g><path style="opacity:1" fill="#f6f6f6" d="M -0.5,-0.5 C 49.5,-0.5 99.5,-0.5 149.5,-0.5C 149.5,12.1667 149.5,24.8333 149.5,37.5C 146.769,34.6451 143.436,33.4784 139.5,34C 117.986,55.6806 96.3195,77.1806 74.5,98.5C 52.6805,77.1806 31.0138,55.6806 9.5,34C 5.46947,33.1822 2.13614,34.3489 -0.5,37.5C -0.5,24.8333 -0.5,12.1667 -0.5,-0.5 Z"/></g>
<g><path style="opacity:1" fill="#050505" d="M 149.5,37.5 C 149.5,39.5 149.5,41.5 149.5,43.5C 126.035,66.4651 102.701,89.6317 79.5,113C 77.1848,115.106 74.5181,115.772 71.5,115C 47.632,90.9651 23.632,67.1317 -0.5,43.5C -0.5,41.5 -0.5,39.5 -0.5,37.5C 2.13614,34.3489 5.46947,33.1822 9.5,34C 31.0138,55.6806 52.6805,77.1806 74.5,98.5C 96.3195,77.1806 117.986,55.6806 139.5,34C 143.436,33.4784 146.769,34.6451 149.5,37.5 Z"/></g>
<g><path style="opacity:1" fill="#f6f6f6" d="M -0.5,43.5 C 23.632,67.1317 47.632,90.9651 71.5,115C 74.5181,115.772 77.1848,115.106 79.5,113C 102.701,89.6317 126.035,66.4651 149.5,43.5C 149.5,78.8333 149.5,114.167 149.5,149.5C 99.5,149.5 49.5,149.5 -0.5,149.5C -0.5,114.167 -0.5,78.8333 -0.5,43.5 Z"/></g>
</svg>
