<svg xmlns="http://www.w3.org/2000/svg" version="1.1" xmlns:xlink="http://www.w3.org/1999/xlink" xmlns:svgjs="http://svgjs.com/svgjs" width="512" height="512" x="0" y="0" viewBox="0 0 512 512" style="enable-background:new 0 0 512 512" xml:space="preserve"><g><g><path d="m1 224.336v265.327l170.567-132.663z" fill="#282828" data-original="#000000"></path><path d="m446 155.31v81.576l50.373-39.179z" fill="#282828" data-original="#000000"></path><path d="m265.659 3.523c-5.582-4.697-13.736-4.697-19.318 0l-39.775 33.477h98.867z" fill="#282828" data-original="#000000"></path><path d="m66 155.31-50.373 42.397 50.373 39.179z" fill="#282828" data-original="#000000"></path><path d="m201.146 372-180 140h469.708l-180-140z" fill="#282828" data-original="#000000"></path><path d="m340.432 357 170.568 132.664v-265.329z" fill="#282828" data-original="#000000"></path><path d="m252.219 179.364c-12.167 0-24.752 11.83-24.752 31.626 0 20.126 12.276 33.646 23.742 33.646 12.074 0 21.975-14.127 22.687-31.889l.019-3.771c-.539-17.524-9.308-29.612-21.696-29.612z" fill="#282828" data-original="#000000"></path><path d="m310.854 342 105.146-81.781v-178.219c0-8.284-6.716-15-15-15h-290c-8.284 0-15 6.716-15 15v178.22l105.146 81.78zm-160.596-102.092c-7.163-27.235-3.561-55.947 10.144-80.846 13.699-24.89 36.023-43.302 62.86-51.845 28.313-9.015 58.376-6.359 84.647 7.478 26.275 13.838 45.471 37.114 54.05 65.541.047.154.091.31.132.466 5.702 21.36 4.014 41.524-5.474 65.379-6.413 16.124-22.136 33.354-47.031 33.354-9.032 0-17.693-3.704-24.387-10.431-1.584-1.592-3.011-3.326-4.289-5.163-8.407 6.838-18.602 10.794-29.7 10.794-14.498 0-28.594-7.038-38.673-19.31-9.718-11.832-15.069-27.577-15.069-44.336 0-16.834 5.694-32.411 16.034-43.86 10.196-11.29 24.309-17.766 38.718-17.766 7.925 0 15.456 1.889 22.223 5.448 1.312-6.953 7.407-12.206 14.726-12.206h.076c8.284.041 14.967 6.79 14.926 15.074l-.413 83.335c-.013 2.559.999 5.111 2.707 6.827.591.595 1.783 1.592 3.121 1.592 12.104 0 17.428-10.099 19.154-14.44 7.007-17.617 8.335-31.488 4.427-46.324-6.273-20.566-20.2-37.405-39.237-47.431-19.104-10.062-40.972-11.991-61.568-5.436-40.599 12.924-63.919 55.3-53.09 96.474 8.992 34.192 39.899 58.753 75.16 59.729 8.28.229 14.809 7.128 14.579 15.409-.225 8.14-6.895 14.585-14.986 14.585-.141 0-.281-.002-.423-.006-23.245-.643-46.191-8.9-64.612-23.252-19.138-14.908-32.53-35.252-38.732-58.833z" fill="#282828" data-original="#000000"></path></g></g></svg>