<svg xmlns="http://www.w3.org/2000/svg" version="1.1" xmlns:xlink="http://www.w3.org/1999/xlink" xmlns:svgjs="http://svgjs.com/svgjs" width="512" height="512" x="0" y="0" viewBox="0 0 512.976 512.976" style="enable-background:new 0 0 512 512" xml:space="preserve" class=""><g><g><g><path d="m461.138 122.676h-106.9c1.5-.5 3-1 4.4-1.5 35.5-12.5 57.4-37 58.6-65.4.9-21.9-11-41.7-30.4-50.5-12.3-5.6-45.6-14-88.4 27.1-21.2 20.4-38.6 46.3-49.7 73.4-11.1-27.1-28.5-53-49.7-73.4-42.7-41.2-76-32.7-88.3-27.1-19.4 8.8-31.4 28.6-30.4 50.5 1.2 28.4 23.1 52.9 58.6 65.4 1.5.5 2.9 1 4.4 1.5h-91.6c-17.5 0-31.8 14.3-31.8 31.8v74.8c0 14.8 10.1 27.2 23.8 30.8v210.4c0 23.1 18.8 42 42 42h341.5c23.1 0 42-18.8 42-42v-210.5c13.7-3.6 23.8-16 23.8-30.8v-74.8c-.1-17.5-14.4-31.7-31.9-31.7zm-151.6-78.8c18.7-18 37.8-27.5 54.5-27.5 5.7 0 11.2 1.1 16.3 3.4 13.4 6.1 21.7 19.9 21 35.2-.9 21.7-18.8 40.7-48 51-24.6 8.7-56.8 14.2-93.7 16.1 9.8-28.5 28-57.1 49.9-78.2zm-213.3 11.1c-.6-15.3 7.6-29.1 21-35.2 5.1-2.3 10.5-3.4 16.3-3.4 16.7 0 35.7 9.5 54.5 27.5 22 21.1 40.1 49.7 49.8 78.3-36.9-1.9-69.1-7.5-93.7-16.1-29.1-10.3-47-29.4-47.9-51.1zm-60.3 174.2v-74.8c0-8.7 7.1-15.8 15.8-15.8h154.5c-11.3 9.5-20.6 22-29.7 34.3-9.3 12.6-18 24.5-28.7 33-3.5 2.7-4 7.8-1.3 11.2 1.6 2 3.9 3 6.3 3 1.7 0 3.5-.6 5-1.7 12.3-9.8 22.2-23.1 31.7-36 14.9-20.2 29.1-39.4 51.4-43.2v105.7h-189.2c-8.7.1-15.8-7-15.8-15.7zm23.8 241.3v-209.5h181.1v235.5h-155.1c-14.4 0-26-11.7-26-26zm367.4 26h-170.3v-235.5h196.4v209.5c-.1 14.3-11.7 26-26.1 26zm49.8-267.3c0 8.7-7.1 15.8-15.8 15.8h-204.3v-105.7c22.3 3.7 36.4 22.9 51.4 43.2 9.5 12.9 19.3 26.2 31.7 36 1.5 1.2 3.2 1.7 5 1.7 2.4 0 4.7-1 6.3-3 2.7-3.5 2.2-8.5-1.3-11.2-10.7-8.5-19.4-20.4-28.7-33-9.1-12.3-18.3-24.9-29.7-34.3h169.8c8.7 0 15.8 7.1 15.8 15.8v74.7z" fill="#282828" data-original="#000000" class=""></path><path d="m427.238 512.976h-341.5c-23.435 0-42.5-19.065-42.5-42.5v-210.017c-14.034-3.864-23.8-16.631-23.8-31.183v-74.8c0-17.811 14.49-32.3 32.3-32.3h88.591c-.51-.175-1.023-.351-1.549-.525-35.699-12.57-57.73-37.187-58.941-65.854-1.007-22.051 11.04-42.061 30.693-50.977 12.393-5.642 45.859-14.288 88.854 27.196 20.663 19.883 38.155 45.572 49.353 72.45 11.199-26.88 28.692-52.569 49.354-72.451 43.16-41.445 76.586-32.824 88.953-27.194 19.553 8.87 31.601 28.878 30.692 50.976-1.212 28.667-23.243 53.284-58.934 65.851-.493.176-.999.352-1.513.528h103.847c17.764 0 32.299 14.444 32.399 32.197v74.803c0 14.551-9.767 27.319-23.8 31.183v210.117c.001 23.435-19.064 42.5-42.499 42.5zm-375.5-389.8c-17.259 0-31.3 14.041-31.3 31.3v74.8c0 14.226 9.633 26.692 23.427 30.316l.373.098v210.786c0 22.883 18.617 41.5 41.5 41.5h341.5c22.883 0 41.5-18.617 41.5-41.5v-210.886l.373-.098c13.793-3.625 23.427-16.091 23.427-30.317v-74.8c-.098-17.203-14.184-31.2-31.399-31.2h-109.982l2.923-.974c1.497-.499 2.993-.998 4.391-1.497 35.293-12.427 57.074-36.708 58.268-64.95.892-21.688-10.926-41.323-30.105-50.023-12.183-5.547-45.129-14.018-87.848 27.005-20.85 20.062-38.459 46.069-49.584 73.229l-.463 1.13-.463-1.13c-11.123-27.158-28.732-53.165-49.583-73.229-42.55-41.056-75.537-32.564-87.747-27.005-19.278 8.745-31.096 28.38-30.107 50.022 1.193 28.245 22.976 52.525 58.267 64.951.744.248 1.47.499 2.197.749.724.25 1.447.499 2.195.749l2.923.974h-94.683zm375.401 373.8h-170.8v-236.5h197.4v210c-.102 14.614-12.035 26.5-26.6 26.5zm-169.801-1h169.8c14.018 0 25.502-11.44 25.6-25.504v-208.996h-195.4zm-16 1h-155.6c-14.612 0-26.5-11.888-26.5-26.5v-210h182.1zm-181.1-235.5v209c0 14.061 11.439 25.5 25.5 25.5h154.6v-234.5zm400.901-16h-204.8v-106.79l.582.097c22.402 3.717 36.546 22.86 51.521 43.127l.199.269c9.463 12.85 19.247 26.136 31.607 35.905 1.322 1.057 2.899 1.592 4.69 1.592 2.36 0 4.459-.999 5.909-2.813 1.229-1.593 1.788-3.56 1.568-5.532-.22-1.983-1.208-3.745-2.783-4.959-10.564-8.392-19.176-20.062-28.294-32.417l-1.206-1.633c-8.777-11.869-17.854-24.141-28.913-33.26l-1.074-.886h171.193c8.987 0 16.3 7.313 16.3 16.3v75.2h-.208c-.264 8.758-7.471 15.8-16.291 15.8zm-203.801-1h203.8c8.437 0 15.3-6.864 15.3-15.3v-.5h.2v-74.2c0-8.437-6.863-15.3-15.3-15.3h-168.425c10.676 9.094 19.49 21.013 28.023 32.552l1.207 1.633c9.077 12.3 17.65 23.918 28.105 32.224 1.786 1.377 2.911 3.38 3.161 5.636.248 2.231-.383 4.455-1.776 6.261-1.649 2.062-4.025 3.194-6.695 3.194-2.024 0-3.812-.609-5.313-1.809-12.463-9.851-22.288-23.192-31.79-36.094l-.198-.268c-14.72-19.922-28.631-38.749-50.299-42.635zm-205.788.901c-4.241 0-8.244-1.649-11.285-4.656-3.112-3.076-4.826-7.177-4.826-11.545v-74.8c0-8.988 7.312-16.3 16.3-16.3h155.871l-1.05.883c-11.392 9.578-20.658 22.103-29.62 34.215l-.508.689c-9.116 12.352-17.726 24.019-28.283 32.405-1.554 1.198-2.539 2.942-2.779 4.916-.243 1.993.326 4.027 1.56 5.582 1.45 1.812 3.548 2.811 5.908 2.811 1.601 0 3.315-.584 4.704-1.603 12.488-9.95 22.638-23.733 31.593-35.893 15.004-20.342 29.176-39.555 51.719-43.396l.584-.1v106.792h-189.7c-.063 0-.126 0-.188 0zm.188-106.301c-8.437 0-15.3 6.864-15.3 15.3v74.8c0 4.1 1.608 7.947 4.529 10.834 2.895 2.862 6.738 4.405 10.765 4.366h188.706v-104.604c-21.81 4.006-35.748 22.903-50.498 42.901-8.992 12.21-19.184 26.049-31.791 36.094-1.596 1.17-3.476 1.809-5.312 1.809-2.67 0-5.045-1.132-6.69-3.188-1.4-1.764-2.045-4.069-1.771-6.326.273-2.241 1.394-4.223 3.156-5.582 10.447-8.299 19.019-19.915 28.094-32.211l.509-.689c8.724-11.792 17.736-23.974 28.746-33.503h-153.143zm186.81-16.363-.736-.038c-36.601-1.885-69.05-7.461-93.839-16.127-29.295-10.37-47.326-29.641-48.235-51.552v-.001c-.608-15.507 7.75-29.51 21.292-35.675 5.141-2.318 10.54-3.445 16.507-3.445 16.995 0 35.96 9.558 54.846 27.639 21.95 21.052 40.147 49.664 49.928 78.5zm-141.81-67.757c.892 21.488 18.674 40.422 47.568 50.649 24.533 8.576 56.614 14.117 92.821 16.033-9.786-28.452-27.774-56.626-49.434-77.401-18.695-17.899-37.421-27.361-54.154-27.361-5.823 0-11.087 1.098-16.095 3.355-13.17 5.996-21.298 19.627-20.706 34.725zm162.187 67.658.241-.7c9.868-28.7 28.102-57.274 50.025-78.397 18.517-17.824 37.995-27.64 54.847-27.64 5.884 0 11.438 1.159 16.506 3.444 13.644 6.211 22.001 20.215 21.294 35.679-.906 21.858-18.975 41.092-48.333 51.449-24.456 8.648-56.906 14.226-93.841 16.128zm50.96-78.378c-21.635 20.845-39.657 48.983-49.53 77.302 36.532-1.934 68.614-7.474 92.817-16.033 28.959-10.215 46.778-29.112 47.667-50.549.688-15.055-7.439-28.685-20.707-34.725-4.937-2.226-10.353-3.355-16.094-3.355-16.592 0-35.823 9.717-54.153 27.36z" fill="#282828" data-original="#000000" class=""></path></g></g></g></svg>