<svg xmlns="http://www.w3.org/2000/svg" version="1.1" xmlns:xlink="http://www.w3.org/1999/xlink" xmlns:svgjs="http://svgjs.com/svgjs" width="512" height="512" x="0" y="0" viewBox="0 0 512 512" style="enable-background:new 0 0 512 512" xml:space="preserve"><g>
<g>
	<g>
		<path d="M256,0C115.39,0,0,115.39,0,256s115.39,256,256,256s256-115.39,256-256S396.61,0,256,0z M286,376
			c0,16.538-13.462,30-30,30c-16.538,0-30-13.462-30-30V226c0-16.538,13.462-30,30-30c16.538,0,30,13.462,30,30V376z M256,166
			c-16.538,0-30-13.462-30-30c0-16.538,13.462-30,30-30c16.538,0,30,13.462,30,30C286,152.538,272.538,166,256,166z" fill="#db1e25" data-original="#000000"></path>
	</g>
</g>
<g>
</g>
<g>
</g>
<g>
</g>
<g>
</g>
<g>
</g>
<g>
</g>
<g>
</g>
<g>
</g>
<g>
</g>
<g>
</g>
<g>
</g>
<g>
</g>
<g>
</g>
<g>
</g>
<g>
</g>
</g></svg>