<?xml version="1.0" encoding="iso-8859-1"?>
<!-- Generator: Adobe Illustrator 19.0.0, SVG Export Plug-In . SVG Version: 6.00 Build 0)  -->
<svg version="1.1" id="Capa_1" xmlns="http://www.w3.org/2000/svg" xmlns:xlink="http://www.w3.org/1999/xlink" x="0px" y="0px"
	 viewBox="0 0 488.1 488.1" style="enable-background:new 0 0 488.1 488.1;" xml:space="preserve">
<g>
	<g>
		<path d="M415.9,73.298h-65.5c-39.9,0-72.2,32.3-72.2,72.2c0,31.9,20.7,58.9,49.4,68.5v34.4c0,3.2,3.9,4.8,6.1,2.5l33.2-33.2h49
			c39.9,0,72.2-32.3,72.2-72.2C488.1,105.698,455.8,73.298,415.9,73.298z M425.4,177.198h-81.1c-3.6,0-6.5-2.9-6.5-6.5
			s2.9-6.5,6.5-6.5h81.1c3.6,0,6.5,2.9,6.5,6.5S429,177.198,425.4,177.198z M431.9,145.498c0,3.6-2.9,6.5-6.5,6.5h-81.1
			c-3.6,0-6.5-2.9-6.5-6.5l0,0c0-3.6,2.9-6.5,6.5-6.5h81.1C429,138.998,431.9,141.898,431.9,145.498L431.9,145.498z M431.9,120.298
			c0,3.6-2.9,6.5-6.5,6.5h-81.1c-3.6,0-6.5-2.9-6.5-6.5l0,0c0-3.6,2.9-6.5,6.5-6.5h81.1C429,113.798,431.9,116.798,431.9,120.298
			L431.9,120.298z"/>
		<path d="M329.1,347.498c-43.5-35.8-90.5-59.6-100.1-64.2c-1.1-0.5-1.7-1.6-1.7-2.8v-33.2c5.1-8.8,8.4-18.1,9.7-26.6
			c3.7-0.3,8.6-5.5,13.9-24.1c6.8-23.9,0.4-28.7-5.7-28.7c0.6-2,1.1-4.1,1.4-6.1c11-65.9-21.5-68.2-21.5-68.2s-5.4-10.3-19.5-18.2
			c-9.5-5.6-22.7-10-40.1-8.5c-5.6,0.3-11,1.4-16,3l0,0c-6.4,2.2-12.3,5.3-17.6,9c-6.5,4.1-12.7,9.2-18.1,15
			c-8.6,8.8-16.2,20.1-19.6,34.3c-2.8,10.6-2.2,21.6,0.2,33.5l0,0c0.4,2,0.9,4.1,1.4,6.1c-6.1,0.1-12.1,5.1-5.4,28.6
			c5.3,18.6,10.2,23.8,13.9,24.1c1.3,8.4,4.6,17.7,9.7,26.6v33.1c0,1.2-0.7,2.3-1.7,2.8c-9.5,4.7-56.5,28.4-100.1,64.2
			c-7.8,6.4-12.2,16.1-12.2,26.2v48.1h148.3l14.6-66.9c-29.6-41.3,2.2-43.3,7.8-43.3l0,0l0,0c5.5,0,37.3,2,7.8,43.3l14.6,66.9h148.3
			v-48.1C341.3,363.598,336.9,353.898,329.1,347.498z"/>
		<path d="M329.1,347.498c-43.5-35.8-90.5-59.6-100.1-64.2c-1.1-0.5-1.7-1.6-1.7-2.8v-33.2c5.1-8.8,8.4-18.1,9.7-26.6
			c3.7-0.3,8.6-5.5,13.9-24.1c6.8-23.9,0.4-28.7-5.7-28.7c0.6-2,1.1-4.1,1.4-6.1c11-65.9-21.5-68.2-21.5-68.2s-5.4-10.3-19.5-18.2
			c-9.5-5.6-22.7-10-40.1-8.5c-5.6,0.3-11,1.4-16,3l0,0c-6.4,2.2-12.3,5.3-17.6,9c-6.5,4.1-12.7,9.2-18.1,15
			c-8.6,8.8-16.2,20.1-19.6,34.3c-2.8,10.6-2.2,21.6,0.2,33.5l0,0c0.4,2,0.9,4.1,1.4,6.1c-6.1,0.1-12.1,5.1-5.4,28.6
			c5.3,18.6,10.2,23.8,13.9,24.1c1.3,8.4,4.6,17.7,9.7,26.6v33.1c0,1.2-0.7,2.3-1.7,2.8c-9.5,4.7-56.5,28.4-100.1,64.2
			c-7.8,6.4-12.2,16.1-12.2,26.2v48.1h148.3l14.6-66.9c-29.6-41.3,2.2-43.3,7.8-43.3l0,0l0,0c5.5,0,37.3,2,7.8,43.3l14.6,66.9h148.3
			v-48.1C341.3,363.598,336.9,353.898,329.1,347.498z"/>
	</g>
</g>
<g>
</g>
<g>
</g>
<g>
</g>
<g>
</g>
<g>
</g>
<g>
</g>
<g>
</g>
<g>
</g>
<g>
</g>
<g>
</g>
<g>
</g>
<g>
</g>
<g>
</g>
<g>
</g>
<g>
</g>
</svg>
