<svg xmlns="http://www.w3.org/2000/svg" version="1.1" xmlns:xlink="http://www.w3.org/1999/xlink" xmlns:svgjs="http://svgjs.com/svgjs" width="512" height="512" x="0" y="0" viewBox="0 0 48 48" style="enable-background:new 0 0 512 512" xml:space="preserve" class=""><g><g id="Chat"><path d="m42 1h-36a5.0059 5.0059 0 0 0 -5 5v25a5.0059 5.0059 0 0 0 5 5h2v8.998a1.9775 1.9775 0 0 0 1.3384 1.8872 2.0313 2.0313 0 0 0 .6733.1162 1.976 1.976 0 0 0 1.55-.7544l8.1983-10.247h22.24a5.0059 5.0059 0 0 0 5-5v-25a5.0059 5.0059 0 0 0 -5-5zm3 30a3.0033 3.0033 0 0 1 -3 3h-22.7207a.9993.9993 0 0 0 -.7808.3755l-8.4985 10.6225v-9.998a1 1 0 0 0 -1-1h-3a3.0033 3.0033 0 0 1 -3-3v-25a3.0033 3.0033 0 0 1 3-3h36a3.0033 3.0033 0 0 1 3 3zm-35-20a1 1 0 0 1 1-1h13a1 1 0 0 1 0 2h-13a1 1 0 0 1 -1-1zm28 6a1 1 0 0 1 -1 1h-26a1 1 0 0 1 0-2h26a1 1 0 0 1 1 1zm0 6a1 1 0 0 1 -1 1h-26a1 1 0 0 1 0-2h26a1 1 0 0 1 1 1z" fill="#db1e25" data-original="#000000" class=""></path></g></g></svg>