<svg xmlns="http://www.w3.org/2000/svg" version="1.1" xmlns:xlink="http://www.w3.org/1999/xlink" xmlns:svgjs="http://svgjs.com/svgjs" width="512" height="512" x="0" y="0" viewBox="0 0 128 128" style="enable-background:new 0 0 512 512" xml:space="preserve"><g><g id="Online_order" fill="rgb(0,0,0)" data-name="Online order"><path d="m118.91 3h-69.82a7.1 7.1 0 0 0 -7.09 7.09v69.91a2 2 0 0 0 4 0v-63h76v92h-76v-9a2 2 0 0 0 -4 0v18.91a8.1 8.1 0 0 0 8.09 8.09h67.82a8.1 8.1 0 0 0 8.09-8.09v-108.82a7.1 7.1 0 0 0 -7.09-7.09zm-72.91 10v-2.91a3.1 3.1 0 0 1 3.09-3.09h69.82a3.1 3.1 0 0 1 3.09 3.09v2.91zm71.91 110h-67.82a4.1 4.1 0 0 1 -4.09-4.09v-5.91h76v5.91a4.1 4.1 0 0 1 -4.09 4.09z" fill="#db1e25" data-original="#000000"></path><path d="m59 54v7a2 2 0 0 0 2 2h46a2 2 0 0 0 2-2v-7a17 17 0 0 0 -17-17h-16a17 17 0 0 0 -17 17zm46 0v5h-42v-5a13 13 0 0 1 13-13h16a13 13 0 0 1 13 13z" fill="#db1e25" data-original="#000000"></path><path d="m71 45.84a11 11 0 0 0 -4.87 9.16 2 2 0 0 0 4 0 7 7 0 0 1 3.12-5.82 2 2 0 0 0 -2.25-3.34z" fill="#db1e25" data-original="#000000"></path><path d="m88 35a2 2 0 0 0 0-4h-8a2 2 0 0 0 0 4z" fill="#db1e25" data-original="#000000"></path><path d="m91 116h-14a2 2 0 0 0 0 4h14a2 2 0 0 0 0-4z" fill="#db1e25" data-original="#000000"></path><path d="m75 81a8 8 0 0 0 -8 8v8a8 8 0 0 0 8 8h18a8 8 0 0 0 8-8v-8a8 8 0 0 0 -8-8zm22 8v8a4 4 0 0 1 -4 4h-18a4 4 0 0 1 -4-4v-8a4 4 0 0 1 4-4h18a4 4 0 0 1 4 4z" fill="#db1e25" data-original="#000000"></path><path d="m84.45 87.94a2 2 0 0 0 -3.4 2.12l1.84 2.94-1.84 2.94a2 2 0 0 0 .64 2.76 2.05 2.05 0 0 0 1.06.3 2 2 0 0 0 1.7-.94l2.5-4a2 2 0 0 0 0-2.12z" fill="#db1e25" data-original="#000000"></path><path d="m66 90a6 6 0 0 0 -6-6h-32.81l6.16-7.6a5.62 5.62 0 0 0 -.1-8.09 6.08 6.08 0 0 0 -8.28 0l-19.43 17.85a10.92 10.92 0 0 0 -3.54 7.42v12a8.66 8.66 0 0 0 8.87 8.42h20.13a4.23 4.23 0 0 0 4.21-3.77l1.58-14.23h23.21a6 6 0 0 0 6-6zm-31 2a2 2 0 0 0 -2 1.78l-1.78 16a.23.23 0 0 1 -.22.22h-20.13a4.66 4.66 0 0 1 -4.87-4.41v-12a6.84 6.84 0 0 1 2.26-4.49l19.44-17.89a2.07 2.07 0 0 1 2.79 0 1.61 1.61 0 0 1 0 2.39 1.54 1.54 0 0 0 -.17.19l-8.87 10.95a2 2 0 0 0 1.55 3.26h37a2 2 0 0 1 0 4z" fill="#db1e25" data-original="#000000"></path></g></g></svg>