<svg xmlns="http://www.w3.org/2000/svg" version="1.1" xmlns:xlink="http://www.w3.org/1999/xlink" xmlns:svgjs="http://svgjs.com/svgjs" width="512" height="512" x="0" y="0" viewBox="0 0 64 64" style="enable-background:new 0 0 512 512" xml:space="preserve"><g><g id="Layer_32" data-name="Layer 32"><path d="m32.75 21.75v-6.32a.75.75 0 0 0 -1.5 0v6.32a4.52 4.52 0 0 0 0 8.91v17.91a.75.75 0 0 0 1.5 0v-17.91a4.52 4.52 0 0 0 0-8.91zm-.75 7.49a3 3 0 1 1 3-3 3 3 0 0 1 -3 3z" fill="#db1e25" data-original="#000000"></path><path d="m49.32 32a4.54 4.54 0 0 0 -3.78-4.46v-12.11a.75.75 0 0 0 -1.5 0v12.11a4.52 4.52 0 0 0 0 8.92v12.11a.75.75 0 0 0 1.5 0v-12.11a4.54 4.54 0 0 0 3.78-4.46zm-4.52 3a3 3 0 0 1 0-6.06 3 3 0 0 1 0 6.06z" fill="#db1e25" data-original="#000000"></path><path d="m20 36.55v-21.12a.75.75 0 0 0 -1.5 0v21.12a4.52 4.52 0 0 0 0 8.91v3.11a.75.75 0 0 0 1.5 0v-3.11a4.52 4.52 0 0 0 0-8.91zm-.79 7.45a3 3 0 0 1 0-6.06 3 3 0 0 1 0 6.06z" fill="#db1e25" data-original="#000000"></path><path d="m48 60.75h-32a12.76 12.76 0 0 1 -12.75-12.75v-32a12.76 12.76 0 0 1 12.75-12.75h32a12.76 12.76 0 0 1 12.75 12.75v32a12.76 12.76 0 0 1 -12.75 12.75zm-32-56a11.27 11.27 0 0 0 -11.25 11.25v32a11.27 11.27 0 0 0 11.25 11.25h32a11.27 11.27 0 0 0 11.25-11.25v-32a11.27 11.27 0 0 0 -11.25-11.25z" fill="#db1e25" data-original="#000000"></path></g></g></svg>