<svg xmlns="http://www.w3.org/2000/svg" version="1.1" xmlns:xlink="http://www.w3.org/1999/xlink" xmlns:svgjs="http://svgjs.com/svgjs" width="512" height="512" x="0" y="0" viewBox="0 0 512 512" style="enable-background:new 0 0 512 512" xml:space="preserve"><g><g><circle cx="456" cy="216" r="8" fill="#ffffff" data-original="#000000"></circle><path d="m472 160h-432c-22.091 0-40 17.909-40 40v176c0 22.091 17.909 40 40 40h61c1.657 0 3-1.343 3-3v-58c0-1.657-1.343-3-3-3h-4.728c-4.262 0-7.982-3.218-8.255-7.471-.299-4.66 3.388-8.529 7.983-8.529h319.728c4.262 0 7.982 3.218 8.255 7.471.299 4.66-3.388 8.529-7.983 8.529h-5c-1.657 0-3 1.343-3 3v58c0 1.657 1.343 3 3 3h61c22.091 0 40-17.909 40-40v-176c0-22.091-17.909-40-40-40zm-80 80c-13.23 0-24-10.77-24-24s10.77-24 24-24 24 10.77 24 24-10.77 24-24 24zm64 0c-13.23 0-24-10.77-24-24s10.77-24 24-24 24 10.77 24 24-10.77 24-24 24z" fill="#ffffff" data-original="#000000"></path><circle cx="392" cy="216" r="8" fill="#ffffff" data-original="#000000"></circle><path d="m101 64h-13c-8.837 0-16 7.163-16 16v61c0 1.657 1.343 3 3 3h26c1.657 0 3-1.343 3-3v-74c0-1.657-1.343-3-3-3z" fill="#ffffff" data-original="#000000"></path><path d="m440 80c0-8.837-7.163-16-16-16h-13c-1.657 0-3 1.343-3 3v74c0 1.657 1.343 3 3 3h26c1.657 0 3-1.343 3-3z" fill="#ffffff" data-original="#000000"></path><path d="m392 24c0-13.255-10.745-24-24-24h-224c-13.255 0-24 10.745-24 24v117c0 1.657 1.343 3 3 3h266c1.657 0 3-1.343 3-3z" fill="#ffffff" data-original="#000000"></path><path d="m120 488c0 13.255 10.745 24 24 24h224c13.255 0 24-10.745 24-24v-133c0-1.657-1.343-3-3-3h-266c-1.657 0-3 1.343-3 3zm56-104h168c4.42 0 8 3.58 8 8s-3.58 8-8 8h-168c-4.42 0-8-3.58-8-8s3.58-8 8-8zm0 40h168c4.42 0 8 3.58 8 8s-3.58 8-8 8h-168c-4.42 0-8-3.58-8-8s3.58-8 8-8zm0 40h168c4.42 0 8 3.58 8 8s-3.58 8-8 8h-168c-4.42 0-8-3.58-8-8s3.58-8 8-8z" fill="#ffffff" data-original="#000000"></path></g></g></svg>