<svg xmlns="http://www.w3.org/2000/svg" version="1.1" xmlns:xlink="http://www.w3.org/1999/xlink" xmlns:svgjs="http://svgjs.com/svgjs" width="512" height="512" x="0" y="0" viewBox="0 0 128 128" style="enable-background:new 0 0 512 512" xml:space="preserve"><g><path d="m79 41h6v2h-6z" fill="#ffffff" data-original="#000000"></path><path d="m55 41h6v2h-6z" fill="#ffffff" data-original="#000000"></path><path d="m67 41h6v2h-6z" fill="#ffffff" data-original="#000000"></path><path d="m43 41h6v2h-6z" fill="#ffffff" data-original="#000000"></path><path d="m31 41h6v2h-6z" fill="#ffffff" data-original="#000000"></path><path d="m91 41h6v2h-6z" fill="#ffffff" data-original="#000000"></path><path d="m80.79 81.68c-4.21-1.68-6.79-2.84-6.79-5.63 0-3.67 3.31-5.34 6.39-5.34s6.14 1.58 6.14 5v1h2v-1c0-4.4-3.71-6.8-7.56-7v-3.71h-1.97v3.81c-3.66.5-7 3-7 7.24s4.27 6 8 7.49c3.56 1.39 6.93 2.7 6.93 5.87 0 3.67-3.13 5.6-6.75 5.6s-7.18-2.01-7.18-5.82v-1h-2v1c0 4.67 3.85 7.31 8 7.75v4.06h2v-4c4.43-.29 8-3 8-7.58s-4.36-6.24-8.21-7.74z" fill="#ffffff" data-original="#000000"></path><path d="m39 53h20v2h-20z" fill="#ffffff" data-original="#000000"></path><path d="m64.95 53h24.05v2h-24.05z" fill="#ffffff" data-original="#000000"></path><path d="m39 65h16v2h-16z" fill="#ffffff" data-original="#000000"></path><path d="m39 77h11v2h-11z" fill="#ffffff" data-original="#000000"></path><path d="m39 89h20v2h-20z" fill="#ffffff" data-original="#000000"></path><path d="m104.59 14h-80.81a10.21 10.21 0 0 0 -10.41 10 10.21 10.21 0 0 0 10.41 10h3.22v82.53l10-4.39 9 4 9-4 9 4 9-4 9 4 9-4 10 4.39v-82.53h3.59a10.21 10.21 0 0 0 10.41-10 10.21 10.21 0 0 0 -10.41-10zm-5.59 99.47-8-3.47-9 4-9-4-9 4-9-4-9 4-9-4-8 3.52v-87.52h70z" fill="#ffffff" data-original="#000000"></path></g></svg>