<svg xmlns="http://www.w3.org/2000/svg" version="1.1" xmlns:xlink="http://www.w3.org/1999/xlink" xmlns:svgjs="http://svgjs.com/svgjs" width="512" height="512" x="0" y="0" viewBox="0 0 472.615 472.615" style="enable-background:new 0 0 512 512" xml:space="preserve"><g>
<g>
	<g>
		<path d="M403.403,69.213C358.77,24.58,299.428,0,236.308,0c-63.12,0-122.463,24.58-167.095,69.213S0,173.187,0,236.308
			S24.58,358.77,69.213,403.403s103.975,69.213,167.095,69.213c63.12,0,122.462-24.58,167.095-69.213s69.213-103.975,69.213-167.095
			S448.036,113.845,403.403,69.213z M389.478,389.478c-40.913,40.913-95.311,63.445-153.17,63.445
			c-57.86,0-112.257-22.532-153.17-63.445s-63.445-95.311-63.445-153.17s22.532-112.257,63.445-153.17s95.311-63.445,153.17-63.445
			c57.86,0,112.257,22.532,153.17,63.445s63.445,95.311,63.445,153.17S430.391,348.564,389.478,389.478z" fill="#282828" data-original="#000000"></path>
	</g>
</g>
<g>
	<g>
		<path d="M344.855,226.462H132.036c-5.438,0-9.846,4.409-9.846,9.846c0,5.438,4.409,9.846,9.846,9.846h212.819
			c5.438,0,9.846-4.409,9.846-9.846C354.701,230.87,350.292,226.462,344.855,226.462z" fill="#282828" data-original="#000000"></path>
	</g>
</g>
<g>
</g>
<g>
</g>
<g>
</g>
<g>
</g>
<g>
</g>
<g>
</g>
<g>
</g>
<g>
</g>
<g>
</g>
<g>
</g>
<g>
</g>
<g>
</g>
<g>
</g>
<g>
</g>
<g>
</g>
</g></svg>