<svg xmlns="http://www.w3.org/2000/svg" version="1.1" xmlns:xlink="http://www.w3.org/1999/xlink" xmlns:svgjs="http://svgjs.com/svgjs" width="512" height="512" x="0" y="0" viewBox="0 0 2.333 2.333" style="enable-background:new 0 0 512 512" xml:space="preserve" fill-rule="evenodd"><g><path d="m.974 1.912.013.015a.04.04 0 0 1-.025.065l-.26.044c-.052.009-.066-.07-.014-.079l.114-.019A.854.854 0 0 1 .946.342c.051-.013.071.064.02.077a.775.775 0 0 0-.134 1.446l-.075-.092c-.033-.04.028-.09.061-.05l.156.189zM1.36.422 1.346.406A.04.04 0 0 1 1.371.34l.261-.044c.052-.008.065.07.013.079l-.114.019a.854.854 0 0 1-.144 1.596c-.05.014-.071-.063-.02-.077A.775.775 0 0 0 1.5.47l.075.091c.034.04-.028.091-.061.05L1.359.423z" fill="#282828" data-original="#000000" opacity="1"></path><path d="M.563 1.071v.191c0 .013.013.02.019.02l.117.009a.48.48 0 0 0 .05.119l-.077.088a.02.02 0 0 0 0 .028l.135.135a.02.02 0 0 0 .027 0l.09-.076a.48.48 0 0 0 .119.049l.008.117c0 .01.01.02.02.02h.191c.013 0 .02-.013.02-.02l.009-.117a.48.48 0 0 0 .119-.05l.088.077a.02.02 0 0 0 .028 0l.135-.135a.02.02 0 0 0 0-.027l-.076-.09a.48.48 0 0 0 .049-.118l.117-.01c.01 0 .02-.008.02-.019v-.19c0-.014-.013-.021-.02-.02l-.117-.01a.48.48 0 0 0-.05-.118l.077-.089a.02.02 0 0 0 0-.028L1.526.672a.02.02 0 0 0-.027 0l-.09.077a.48.48 0 0 0-.118-.05L1.28.583a.02.02 0 0 0-.019-.02h-.19c-.014 0-.021.013-.02.019l-.01.117a.48.48 0 0 0-.118.05L.835.672a.02.02 0 0 0-.028 0L.672.807a.02.02 0 0 0 0 .027l.077.09a.48.48 0 0 0-.05.119l-.116.008a.02.02 0 0 0-.02.02zm.313.096a.29.29 0 1 1 .582.001.29.29 0 0 1-.582-.001z" fill="#282828" data-original="#000000" opacity="1"></path></g></svg>