<svg xmlns="http://www.w3.org/2000/svg" version="1.1" xmlns:xlink="http://www.w3.org/1999/xlink" xmlns:svgjs="http://svgjs.com/svgjs" width="512" height="512" x="0" y="0" viewBox="0 0 512 512" style="enable-background:new 0 0 512 512" xml:space="preserve"><g><path fill-rule="evenodd" d="M285.4.047a8.273 8.273 0 0 0-9.138 8.216V227.41a8.267 8.267 0 0 0 8.27 8.265h219.134a8.265 8.265 0 0 0 8.231-9.133A255.127 255.127 0 0 0 285.4.047zM.056 274.128A237.785 237.785 0 0 1 204.048 38.1v262.276a8.268 8.268 0 0 0 8.27 8.27H474.6A237.533 237.533 0 0 1 262.63 511.43c-.029-6.779-.078-16.887-.161-28.175a8.047 8.047 0 0 0-.146-1.5 44.534 44.534 0 0 0-23.1-31.226c-9.645-5.7-21-10.387-31.992-14.921-32.09-13.244-51.717-23-48.649-43.91 18.812-17.456 26.482-48.034 21.074-84.532-4.632-31.275-31.748-45.28-56.577-45.28-24.825 0-51.956 14-56.588 45.28-5.32 35.937 2.326 66.3 21.021 83.923 2.833 17.085-9.269 26.8-30.827 36.849C18.619 379.062.076 328.707.056 274.128zM.1 512h246.005c-.039-6.617-.093-16.608-.166-27.833a28.132 28.132 0 0 0-14.56-19.08c-.146-.064-.268-.147-.405-.22-8.66-5.134-19.533-9.63-30.056-13.97-15.316-6.314-31.148-12.858-42.5-22.172-14.087-11.575-19.305-26.1-15.5-43.153a8.214 8.214 0 0 1 2.779-4.545c15.945-13.282 22.367-39.316 17.6-71.44-3.184-21.528-22.5-31.163-40.218-31.163s-37.044 9.635-40.224 31.163c-4.686 31.554 1.727 57.383 17.579 70.894a8.181 8.181 0 0 1 2.677 4.379c4.106 17.271-.97 31.958-15.091 43.671-11.357 9.415-27.307 16-42.735 22.366-10.523 4.34-21.406 8.826-30.066 13.97-.127.073-.258.156-.395.22a28.076 28.076 0 0 0-14.56 19.08C.183 495.392.129 505.383.1 512z" fill="#282828" data-original="#000000"></path></g></svg>