<svg id="Layer_1" height="512" viewBox="0 0 512 512" width="512" xmlns="http://www.w3.org/2000/svg" data-name="Layer 1"><path d="m452.432 370.6a8 8 0 0 1 -11.323 11.309l-20.309-20.309v64.281a8 8 0 0 1 -16 0v-64.281l-20.31 20.306a8 8 0 0 1 -11.308-11.306l33.959-33.968a8.013 8.013 0 0 1 11.323 0zm42.951 23.509a83.18 83.18 0 0 0 -72.56-92.6 85.261 85.261 0 0 0 -10.19-.623 83.187 83.187 0 1 0 82.75 93.219zm-432.451 32.9h260.431a99.16 99.16 0 0 1 111.481-139.582v-63.048l-52.683-52.693-109.288 78.782 32.581 22.839a8 8 0 1 1 -9.181 13.1l-164.2-115.1-116.073 98.16v110.6a46.987 46.987 0 0 0 46.928 46.937zm0-382.23h324.98a46.981 46.981 0 0 1 46.932 46.931v110.038l-46.182-46.178a8.008 8.008 0 0 0 -10.342-.84l-119.32 86.02-122.79-86.081a8.009 8.009 0 0 0 -9.761.448l-110.449 93.403v-156.81a46.98 46.98 0 0 1 46.932-46.932zm427.941 278.14a98.523 98.523 0 0 0 -40.031-30.4v-200.809a63 63 0 0 0 -62.93-62.931h-324.98a63 63 0 0 0 -62.932 62.931v288.361a63.011 63.011 0 0 0 62.931 62.94h270.1c.552.75 1.123 1.5 1.7 2.236a99.177 99.177 0 1 0 156.142-122.328zm-238.631-221.292a36.672 36.672 0 1 1 -36.671 36.673 36.722 36.722 0 0 1 36.671-36.671zm0 89.341a52.67 52.67 0 1 1 52.669-52.67 52.731 52.731 0 0 1 -52.669 52.67z" fill-rule="evenodd"/></svg>