<svg id="Capa_1" enable-background="new 0 0 591.698 591.698" height="512" viewBox="0 0 591.698 591.698" width="512" xmlns="http://www.w3.org/2000/svg"><g><g><path d="m31.88 458.741c-4.665-1.081-8.621-1.173-11.196-1.052-.81 5.179.145 11.356 3.409 17.577 1.833-6.216 4.417-11.739 7.787-16.525z"/><path d="m45.21 445.93c-8.04-1.358-15.483-.708-19.527 2.134 3.787.242 8.384.965 13.291 2.638 1.925-1.741 4.01-3.322 6.236-4.772z"/><path d="m12.795 473.55c-3.603.427-7.351 1.595-9.412 4.403-4.243 5.78-4.854 15.497.238 25.311 2.623-8.835 6.837-16.254 12.568-22.203-1.396-2.468-2.517-4.98-3.394-7.511z"/><path d="m67.544 455.706c-1.236-1.173-2.546-2.26-4.01-3.142-1.624-.98-3.341-1.857-5.106-2.648-3.612 1.464-6.915 3.215-9.809 5.334 3.419 2.172 6.236 4.703 8.709 7.332 2.972-2.657 6.332-4.985 10.216-6.876z"/><path d="m112.77 496.214c3.627-2.303 7.613-4.015 11.899-4.936-.829-.873-1.697-1.702-2.614-2.463-2.934-2.434-6.449-4.228-10.139-5.557-3.928 1.072-7.584 2.783-10.891 5.091 1.721.795 3.482 1.712 5.31 2.827 2.125 1.309 4.287 3.06 6.435 5.038z"/><path d="m94.019 537.498c-.611-.252-1.227-.485-1.838-.756-5.673 5.542-9.693 13.291-11.06 21.35 11.865 3.962 23.483 3.627 28.706-1.663 2.744-2.778 4.117-8.151 3.836-14.27-6.236-.354-12.922-1.906-19.527-4.611-.039-.016-.083-.031-.117-.05z"/><path d="m66.919 513.792c-1.241-2.434-3.079-4.495-5.266-6.095-2.793 1.45-5.843 3.598-7.681 6.677-2.992 5.009-3.409 12.811-3.283 16.903 1.692 1.78 3.157 3.777 4.311 5.979 2.584-8.573 6.91-16.292 12.578-22.349-.204-.383-.46-.723-.659-1.115z"/><path d="m101.521 529.972c5.523 1.843 10.978 2.749 15.769 2.662h.005c.01 0 .019.005.034 0 3.85-.073 7.264-.781 9.921-2.177-3.579-5.736-9.349-14.261-15.361-21.204-5.383 5.566-9.074 13.048-10.368 20.719z"/><path d="m21.94 489.159c-5.421 6.221-9.009 14.382-10.706 24.342.204.204.383.407.592.611 2.963 2.866 6.696 4.951 10.993 6.415.936-9.121 3.685-16.884 8.166-23.222-1.988-1.285-3.831-2.73-5.494-4.34-1.272-1.227-2.436-2.507-3.551-3.806z"/><path d="m92.439 526.074c1.959-8.772 6.425-17.209 12.743-23.682-1.343-1.164-2.657-2.167-3.923-2.943-2.832-1.736-5.504-2.875-8.107-3.772-5.174 6.328-8.689 14.498-10.076 23.76 1.799 1.721 3.719 3.317 5.867 4.65 1.149.707 2.317 1.361 3.496 1.987z"/><path d="m50.801 469.865c-2.662-2.914-5.668-5.586-9.465-7.598-4.883 6.052-8.073 13.747-9.664 23.144.189.189.359.388.558.577 2.977 2.88 6.73 4.97 11.056 6.435.891-8.811 3.35-16.385 7.515-22.558z"/><path d="m47.683 503.507c-.024 0-.053 0-.078 0-.47-.01-.892-.155-1.319-.286-2.221-.446-4.325-1.047-6.362-1.755-4.374 5.445-6.89 12.394-7.598 21.107.179.019.335.063.514.078 2.919.252 5.722 1.013 8.364 2.119.432-4.767 1.581-10.595 4.437-15.371 1.309-2.192 2.977-3.952 4.728-5.533-.853-.107-1.678-.257-2.507-.398-.058.005-.111.039-.179.039z"/><path d="m73.237 523.14c-5.46 6.488-9.194 15.041-10.609 24.371 1.814 1.741 3.748 3.351 5.911 4.694 1.144.713 2.318 1.363 3.496 1.988 1.804-8.282 5.751-16.035 11.313-22.218-3.832-2.444-7.187-5.416-10.111-8.835z"/><path d="m90.121 484.678c1.843-1.731 3.811-3.297 5.882-4.699-.519-.048-1.062-.107-1.561-.141-2.871-.204-5.596-.96-8.127-2.095-1.886.64-5.208 1.988-8.117 4.282 2.08.626 4.316 1.076 6.725 1.552 1.678.33 3.409.68 5.198 1.101z"/><path d="m341.524 353.771c.121-3.908 1.106-7.555 2.9-10.925-3.477-1.076-6.779-1.925-9.902-2.58-3.351 3.991-5.004 8.253-5.043 12.893 4.059.098 8.079.288 12.045.612z"/><path d="m104.886 431.956c4.175 2.521 7.618 5.94 10.43 10.062.116.121.189.272.291.407 1.338 2.022 2.575 4.16 3.579 6.541 2.153 5.101 6.861 8.505 12.287 8.888 5.188.368 11.463 1.275 17.65 3.205.024.005.044.019.068.024 3.899 1.222 7.758 2.841 11.283 5.033 2.192-4.951 2.187-10.6-.053-15.536-5.363-11.817-6.187-20.763-2.449-26.587 3.515-5.474 10.488-9.111 20.152-10.513 4.64-.674 8.636-2.57 11.56-5.484 14.062-14.023 49.639-43.728 104.267-52.446 1.295-14.028 10.959-24.55 24.793-26.146 4.156-.49 9.354-.121 15.197.95v-162.637c0-17.272-8.301-34.093-25.384-51.438-9.354-9.494-14.508-21.83-14.508-34.728v-16.161h-200.262v16.162c0 12.898-5.154 25.229-14.508 34.728-17.078 17.345-25.384 34.171-25.384 51.438v258.386c12.539-7.861 36.958-2.629 50.991 5.852zm133.69-222.727c0-2.677 2.172-4.849 4.849-4.849s4.849 2.172 4.849 4.849v18.392l25.772-22.077c2.037-1.746 5.096-1.508 6.837.529 1.741 2.032 1.508 5.096-.529 6.837l-29.477 25.248 29.477 25.253c2.032 1.741 2.269 4.8.529 6.837-.96 1.12-2.318 1.697-3.685 1.697-1.115 0-2.235-.383-3.152-1.169l-25.772-22.076v18.397c0 2.677-2.172 4.849-4.849 4.849s-4.849-2.172-4.849-4.849zm-47.82 0c0-2.677 2.172-4.849 4.849-4.849s4.849 2.172 4.849 4.849v53.014h24.836c2.677 0 4.849 2.172 4.849 4.849s-2.172 4.849-4.849 4.849h-29.685c-2.677 0-4.849-2.172-4.849-4.849zm-23.285 0c0-2.677 2.172-4.849 4.849-4.849s4.849 2.172 4.849 4.849v57.862c0 2.677-2.172 4.849-4.849 4.849s-4.849-2.172-4.849-4.849zm-61.688 0c0-2.226 1.518-4.17 3.68-4.708 2.182-.529 4.413.47 5.455 2.434l16.186 30.548 16.181-30.548c1.043-1.969 3.283-2.958 5.455-2.434 2.163.538 3.68 2.478 3.68 4.708v57.862c0 2.677-2.172 4.849-4.849 4.849s-4.849-2.172-4.849-4.849v-38.355l-11.332 21.398c-1.683 3.171-6.89 3.171-8.573 0l-11.337-21.398v38.355c0 2.677-2.172 4.849-4.849 4.849s-4.849-2.172-4.849-4.849v-57.862z"/><path d="m357.157 347.458c-.058-.024-.116-.048-.175-.073-1.072-.436-2.124-.839-3.186-1.246-1.683 2.589-2.536 5.441-2.536 8.602 11.928 1.547 23.328 4.097 34.151 7.254-9.105-5.731-18.871-10.697-28.254-14.537z"/><path d="m380.292 186.357h173.854c-1.615-3.089-2.546-6.716-2.546-10.6 0-2.677 2.172-4.849 4.849-4.849s4.849 2.172 4.849 4.849c0 5.746 3.467 10.6 7.574 10.6s7.574-4.854 7.574-10.6-3.467-10.6-7.574-10.6h-188.58c-4.102 0-7.574 4.854-7.574 10.6s3.471 10.6 7.574 10.6z"/><path d="m303.935 354.217c5.13-.548 10.416-.892 15.856-1.033.01-5.067 1.314-9.848 3.918-14.314-1.382-.024-2.672.024-3.855.16-9.397 1.082-14.425 7.914-15.919 15.187z"/><path d="m88.938 55.692h209.959c6.827 0 12.384-5.557 12.384-12.379 0-6.827-5.557-12.384-12.384-12.384h-209.959c-6.827 0-12.384 5.557-12.384 12.384.004 6.822 5.556 12.379 12.384 12.379z"/><path d="m95.135 470.165c1.949.141 4.083.378 6.284.689.315-.645.626-1.3.979-1.891 2.929-4.907 7.477-8.17 11.448-10.26-1.45-1.78-2.672-3.777-3.598-5.974-.199-.466-.451-.868-.664-1.319-8.67 3.836-14.518 9.8-17.733 18.101 1.053.334 2.144.572 3.284.654z"/><path d="m57.119 436.058c-.524.718-1.033 1.59-1.508 2.492 1.561.49 3.074 1.047 4.558 1.634.136.053.267.092.393.16 2.88 1.164 5.596 2.473 7.991 3.918.276.165.504.388.776.558 3.428-4.49 7.56-8.311 12.379-11.434-10.682-2.298-21.204-1.939-24.589 2.672z"/><path d="m77.509 471.014c-1.45-1.78-2.672-3.777-3.603-5.974-.189-.446-.432-.824-.63-1.251-3.743 1.668-6.973 3.743-9.688 6.241.024.029.048.063.073.092 2.022 2.575 3.879 4.873 5.809 6.779 2.511-2.575 5.396-4.495 8.039-5.887z"/><path d="m82.925 493.067c-3.394-.674-6.861-1.421-10.27-2.745-1.411 4.534-1.653 9.732-1.557 12.83 1.683 1.775 3.142 3.758 4.291 5.945 1.761-5.881 4.297-11.288 7.536-16.03z"/><path d="m94.732 437.6c-7.603 3.089-13.509 7.608-17.975 13.664.805.946 1.508 2.012 2.221 3.06.116.126.189.276.296.412 1.338 2.022 2.57 4.156 3.574 6.532.315.752.703 1.45 1.125 2.124 4.078-8.806 10.726-15.517 19.91-20.002-1.236-1.173-2.546-2.26-4.005-3.137-1.582-.951-3.318-1.834-5.146-2.653z"/><path d="m52.828 494.464c.15.015.276.053.427.063 2.919.252 5.722 1.013 8.364 2.119.315-3.515 1.028-7.603 2.526-11.429-2.449-2.148-4.573-4.674-6.687-7.332-2.55 4.655-4.092 10.168-4.63 16.579z"/><path d="m132.268 467.659c-.495-.044-1.013-.102-1.489-.136-2.871-.204-5.596-.96-8.127-2.095-2.638.897-8.044 3.215-11.196 7.516 3.574 1.028 7.118 2.434 10.464 4.243 3.05-3.753 6.517-6.944 10.348-9.528z"/><path d="m476.32 320.057c-7.351 0-15.003 5.46-21.418 15.104 8.452 6.124 15.497 16.423 20.37 28.546 5.009-12.476 12.433-23.546 21.748-29.617-6.269-8.976-13.649-14.033-20.7-14.033z"/><path d="m437.873 338.871c-10.508 0-21.476 11.182-28.468 28.745 1.857 1.61 3.642 3.254 5.339 4.927 25.151 10.779 45.221 23.789 58.076 33.249.073-1.348.17-2.681.17-4.073 0-7.123-.916-14.193-2.478-20.909-.019-.082-.044-.16-.053-.242-5.427-23.092-18.893-41.697-32.586-41.697z"/><path d="m494.673 497.552c12.535 10.469 34.078 25.244 51.501 26.849l-37.599-34.903c-4.698 3.516-9.649 6.149-13.902 8.054z"/><path d="m512.6 338.871c-13.034 0-26.548 17.223-32.391 41.085 1.581 7.172 2.473 14.547 2.473 21.757 0 3.729-.305 7.293-.771 10.745 1.076.747 2.114 1.523 3.273 2.206 8.573-7.487 36.018-29.816 60.447-31.945-5.261-24.627-19.444-43.848-33.031-43.848z"/><path d="m508.571 427.354 37.604-34.903c-17.427 1.6-38.976 16.38-51.506 26.849 4.252 1.906 9.208 4.539 13.902 8.054z"/><path d="m562.918 396.762c-1.338-1.101-2.793-1.935-4.316-2.614l-42.792 39.718c1.736 1.896 3.346 3.942 4.728 6.178l49.673-19.827c3.117-8.729 2.23-15.624-7.293-23.455z"/><path d="m520.533 476.809c-1.382 2.235-2.987 4.282-4.728 6.178l42.792 39.718c1.523-.679 2.982-1.513 4.316-2.614 9.523-7.831 10.411-14.726 7.293-23.454z"/><path d="m509.72 259.411h-5.222v10.44h5.222c2.875 0 5.217-2.342 5.217-5.222 0-2.876-2.342-5.218-5.217-5.218z"/><path d="m591.546 419.15-15.085-200.33c-.65-8.835-3.782-16.108-9.737-22.766h-184.469c-12.21 11.303-18.455 26.247-18.455 44.518v99.234c12.947 5.533 26.243 12.937 37.739 21.515 8.67-19.978 22.228-32.149 36.333-32.149 2.909 0 5.722.553 8.442 1.474 8.423-13.078 18.95-20.288 30-20.288 10.862 0 21.263 7.012 29.627 19.716 2.153-.558 4.364-.902 6.658-.902 6.357 0 12.229 2.41 17.514 6.41l3.142-90.515c.737-16.448 4.747-30.165 11.928-40.828 1.498-2.221 4.505-2.812 6.73-1.314 2.221 1.498 2.812 4.51 1.314 6.73-6.168 9.16-9.63 21.204-10.285 35.795l-3.457 99.651c7.812 10.241 13.441 24.148 16.094 37.996 4.825.873 9.397 2.793 13.495 6.163 15.032 12.365 13.975 25.001 9.446 36.343-.044.112-.073.218-.126.33-1.581 3.899-3.554 7.642-5.421 11.162-2.085 3.937-4.088 7.758-5.533 11.497h.606c6.793 0 12.636-2.468 16.894-7.142 5.006-5.47 7.411-13.601 6.606-22.3zm-203.404-149.299c2.677 0 4.849 2.172 4.849 4.849s-2.172 4.849-4.849 4.849h-8.801v15.284c0 2.677-2.172 4.849-4.849 4.849s-4.849-2.172-4.849-4.849v-40.271c0-2.677 2.172-4.849 4.849-4.849h13.65c2.677 0 4.849 2.172 4.849 4.849s-2.172 4.849-4.849 4.849h-8.801v10.44zm28.686 29.864h-13.524c-2.677 0-4.849-2.172-4.849-4.849v-40.304c0-2.677 2.172-4.849 4.849-4.849s4.849 2.172 4.849 4.849v35.456h8.675c2.677 0 4.849 2.172 4.849 4.849s-2.172 4.848-4.849 4.848zm35.621-13.863c0 7.637-6.211 13.849-13.849 13.849s-13.849-6.211-13.849-13.849v-22.305c0-7.637 6.211-13.849 13.849-13.849s13.849 6.211 13.849 13.849zm35 0c0 7.637-6.212 13.849-13.849 13.849s-13.849-6.211-13.849-13.849v-31.305c0-2.677 2.172-4.849 4.849-4.849s4.849 2.172 4.849 4.849v31.305c0 2.289 1.862 4.151 4.151 4.151s4.151-1.862 4.151-4.151v-31.305c0-2.677 2.172-4.849 4.849-4.849s4.849 2.172 4.849 4.849zm36.672 6.813c1.198 2.395.228 5.305-2.167 6.507-.698.349-1.435.509-2.163.509-1.78 0-3.491-.979-4.345-2.681l-8.733-17.456h-2.216v15.318c0 2.677-2.172 4.849-4.849 4.849s-4.849-2.172-4.849-4.849v-40.3c0-2.677 2.172-4.849 4.849-4.849h10.071c8.224 0 14.915 6.692 14.915 14.915 0 5.707-3.254 10.614-7.972 13.121z"/><path d="m438.6 259.396c-2.289 0-4.151 1.862-4.151 4.151v22.305c0 2.289 1.862 4.151 4.151 4.151s4.151-1.862 4.151-4.151v-22.305c0-2.294-1.862-4.151-4.151-4.151z"/><path d="m157.017 475.514c-2.662-1.935-5.673-3.457-8.854-4.592-7.133 1.954-13.402 6.008-18.334 11.904 3.317 3.084 6.129 6.759 8.35 10.852.005.01.01.019.015.029 0 .005.005.01.005.015 4.849-6.129 10.993-10.711 17.786-13.257.213-1.571.552-3.215 1.032-4.951z"/><path d="m311.209 441.668c-1.901-5.348-4.51-9.048-7.501-10.115-12.151-4.33-22.843 6.711-26.378 10.934.388 1.94.698 4.005.946 6.163 10.254-4.184 21.295-6.526 32.933-6.982z"/><path d="m277.256 474.67c-.616 2.929-1.382 5.567-2.245 7.991 5.984 6.357 18.804 16.908 28.783 12.602 3.816-1.649 6.983-7.613 8.849-15.623-1.925.112-3.84.179-5.741.179-10.357-.004-20.253-1.788-29.646-5.149z"/><path d="m119.622 503.366c5.46 6.357 10.382 13.466 13.742 18.639.592-2.386.863-5.13.718-8.098-.238-4.796-1.435-9.465-3.394-13.679-3.996.214-7.706 1.344-11.066 3.138z"/><path d="m525.396 463.275c-.218 1.61-.562 3.147-.984 4.64l39.727 15.856c-3.467-6.556-6.924-13.306-8.083-20.496z"/><path d="m157.967 492.868c-.446-.693-.815-1.44-1.135-2.221-5.756 2.841-10.784 7.753-14.363 14.101.693 2.832 1.149 5.736 1.295 8.68.102 2.003.034 3.937-.141 5.809 9.999 2.163 18.746.999 22.936-3.239 2.74-2.774 4.146-8.243 3.84-14.421-5.687-1.896-9.939-4.83-12.432-8.709z"/><path d="m516.057 458.426c0-17.175-17.034-26.844-27.183-31.077-1.566-.655-2.982-1.464-4.466-2.206-.427-.136-.815-.339-1.198-.592-3.195-1.678-6.221-3.516-8.971-5.601-.116-.068-.218-.145-.33-.223-.155-.121-.344-.213-.499-.339-11.594-9.101-33.831-24.739-62.905-37.138-.16-.053-.301-.126-.456-.199-24.303-10.309-53.334-18.339-85.051-18.339-68.758 0-112.748 36.464-128.473 52.141-4.413 4.403-10.294 7.244-17.015 8.219-6.706.97-11.458 3.157-13.383 6.153-.65 1.018-2.357 5.276 3.123 17.345 3.419 7.535 3.419 16.181 0 23.716-5.474 12.069-3.772 16.326-3.118 17.345 1.92 2.997 6.672 5.184 13.383 6.153 6.721.975 12.602 3.816 17.015 8.219 15.725 15.677 59.715 52.136 128.473 52.136 69.951 0 127.091-38.932 148.407-55.671 2.963-2.323 6.299-4.32 9.79-6.158.388-.257.776-.461 1.207-.596 1.484-.742 2.905-1.556 4.466-2.206 10.15-4.238 27.184-13.907 27.184-31.082zm-295.577 10.314c-8.457 0-15.313-6.856-15.313-15.313s6.856-15.313 15.313-15.313 15.313 6.856 15.313 15.313-6.856 15.313-15.313 15.313zm87.155 35.421c-2.968 1.28-5.954 1.828-8.888 1.828-11.444 0-22.121-8.311-28.104-14.009-5.053 8.355-10.634 11.701-11.06 11.943-.756.432-1.581.635-2.395.635-1.687 0-3.326-.878-4.219-2.449-1.324-2.327-.509-5.29 1.814-6.614.543-.325 14.382-8.951 14.382-37.07 0-28.303-14.018-37.909-14.615-38.307-2.221-1.469-2.861-4.461-1.416-6.692 1.45-2.235 4.403-2.89 6.648-1.469.524.33 8.922 5.887 14.401 19.745 6.745-6.415 18.586-14.329 32.774-9.281 14.925 5.31 16.894 30.17 17.141 37.662.596 18.141-4.263 38.813-16.463 44.078z"/><path d="m313.536 451.313c-12.418.204-24.075 2.808-34.694 7.666-.015 2.051-.087 4.029-.223 5.911 11.022 4.277 22.945 5.921 35.548 4.888.252-3.021.339-6.173.238-9.378-.108-3.205-.428-6.231-.869-9.087z"/><path d="m524.412 448.942c.422 1.489.761 3.031.984 4.64h30.66c1.159-7.191 4.616-13.941 8.083-20.496z"/></g></g></svg>