<svg height="512" viewBox="0 0 64 64" width="512" xmlns="http://www.w3.org/2000/svg"><g id="Layer_32" data-name="Layer 32"><path d="m48 3.25h-32a12.76 12.76 0 0 0 -12.75 12.75v32a12.76 12.76 0 0 0 12.75 12.75h32a12.76 12.76 0 0 0 12.75-12.75v-32a12.76 12.76 0 0 0 -12.75-12.75zm-28 42.21v3.11a.75.75 0 0 1 -1.5 0v-3.11a4.52 4.52 0 0 1 0-8.91v-21.12a.75.75 0 0 1 1.5 0v21.12a4.52 4.52 0 0 1 0 8.91zm12.79-14.8v17.91a.75.75 0 0 1 -1.5 0v-17.91a4.52 4.52 0 0 1 0-8.91v-6.32a.75.75 0 0 1 1.5 0v6.32a4.52 4.52 0 0 1 0 8.91zm12.79 5.8v12.11a.75.75 0 0 1 -1.5 0v-12.11a4.52 4.52 0 0 1 0-8.92v-12.11a.75.75 0 0 1 1.5 0v12.11a4.52 4.52 0 0 1 0 8.92z"/></g></svg>