<svg xmlns="http://www.w3.org/2000/svg" version="1.1" xmlns:xlink="http://www.w3.org/1999/xlink" xmlns:svgjs="http://svgjs.com/svgjs" width="512" height="512" x="0" y="0" viewBox="0 0 32 32" style="enable-background:new 0 0 512 512" xml:space="preserve"><g><path d="M16 25v-.926a9.24 9.24 0 0 0 1.063-.601l.898.504c.3.167.638.255.979.255a2.01 2.01 0 0 0 1.718-.978l2.06-3.463a2.011 2.011 0 0 0 .214-1.542 2.01 2.01 0 0 0-.952-1.225l-.847-.474a8.015 8.015 0 0 0 0-1.1l.845-.473c.47-.264.816-.711.954-1.229a2.008 2.008 0 0 0-.212-1.538l-2.062-3.464a2.009 2.009 0 0 0-1.718-.978c-.341 0-.678.088-.977.254l-.9.505A9.246 9.246 0 0 0 16 7.926V7c0-1.103-.897-2-2-2a1 1 0 0 1 1-1h4a2 2 0 0 0 4 0h4a1 1 0 0 1 1 1v22a1 1 0 0 1-1 1H15a1 1 0 0 1-1-1c1.103 0 2-.897 2-2z" fill="#282828" data-original="#000000"></path><path d="M15 29h12c1.103 0 2-.897 2-2V5c0-1.103-.897-2-2-2H15c-1.103 0-2 .897-2 2h-1c0-1.654 1.346-3 3-3h12c1.654 0 3 1.346 3 3v22c0 1.654-1.346 3-3 3H15c-1.654 0-3-1.346-3-3h1c0 1.103.897 2 2 2z" fill="#282828" data-original="#000000"></path><path d="m21.49 17.896-1.42-.796a7.536 7.536 0 0 0 0-2.2l1.42-.796a1 1 0 0 0 .37-1.383l-2.061-3.464a1 1 0 0 0-1.349-.361l-1.449.812a8.319 8.319 0 0 0-2-1.129V7a1 1 0 0 0-1-1h-4a1 1 0 0 0-1 1v1.58a8.323 8.323 0 0 0-2.002 1.128l-1.45-.812a1 1 0 0 0-1.348.36l-2.06 3.465a.999.999 0 0 0 .37 1.383l1.42.796c-.055.37-.082.738-.082 1.1s.027.73.082 1.1l-1.42.796a1 1 0 0 0-.37 1.383l2.06 3.464a1 1 0 0 0 1.349.361L7 22.292c.61.466 1.286.848 2 1.129V25a1 1 0 0 0 1 1h4a1 1 0 0 0 1-1v-1.58a8.323 8.323 0 0 0 2.001-1.128l1.45.812a1 1 0 0 0 1.348-.36l2.06-3.465a.999.999 0 0 0-.37-1.383zm-2.636-2.042-2 2a.498.498 0 0 1-.708 0l-2-2a.5.5 0 1 1 .708-.708L16 16.293V16c0-2.206-1.794-4-4-4s-4 1.794-4 4 1.794 4 4 4c.986 0 1.933-.362 2.667-1.019a.5.5 0 1 1 .666.745A4.986 4.986 0 0 1 12 21c-2.757 0-5-2.243-5-5s2.243-5 5-5 5 2.243 5 5v.293l1.146-1.147a.5.5 0 1 1 .708.708z" fill="#282828" data-original="#000000"></path></g></svg>