<svg id="Слой_1" enable-background="new 0 0 4000 4000" height="512" viewBox="0 0 4000 4000" width="512" xmlns="http://www.w3.org/2000/svg"><g><path d="m1887.898 2665.386h.372l476.123.338c13.151.009 23.817-10.649 23.817-23.8v-50.85c0-12.327-9.466-22.337-21.732-23.563-312.215-31.192-556.847-295.277-556.847-615.562 0-300.783 215.757-552.014 500.613-607.342l-414.944-422.588c-54.909 19.198-106.192 42.126-151.955 68.192-10.772 6.136-18.534 16.376-22.013 28.275l-19.383 66.298c-34.377 101.201-135.662 165.723-244.592 151.107-100.026-13.421-181.023-95.267-193.387-195.429-6.304-51.074 4.686-100.305 28.625-141.641 35.277-60.916 100.449-98.459 170.453-105.85l50.837-5.367c11.478-1.212 22.384-5.529 31.823-12.171 43.914-30.898 77.024-46.657 133.545-73.447l-74.561-75.932c-33.306-33.922-77.606-51.958-124.88-53.602-47.263 1.4-91.098 19.826-124.264 53.602l-728.98 742.408c-34.954 35.598-54.538 83.494-54.538 133.384v1854.304c0 39.433 31.967 71.4 71.4 71.4h418.451c7.687 0 14.901-3.713 19.368-9.969l380.55-532.889c98.282-137.625 256.984-219.306 426.099-219.306z"/><path d="m2444.852 2475.55c288.715 0 523.6-234.886 523.6-523.6s-234.885-523.6-523.6-523.6-523.6 234.885-523.6 523.6 234.885 523.6 523.6 523.6zm0-880.6c39.372 0 71.4 32.028 71.4 71.4s-32.028 71.4-71.4 71.4-71.4-32.028-71.4-71.4c0-39.373 32.027-71.4 71.4-71.4zm-142.8 214.2h166.6c26.287 0 47.6 21.313 47.6 47.6v333.2h71.4c26.287 0 47.6 21.313 47.6 47.6s-21.313 47.6-47.6 47.6h-284.612c-26.287 0-47.6-21.313-47.6-47.6s21.313-47.6 47.6-47.6h118.012v-285.6h-119c-26.287 0-47.6-21.313-47.6-47.6s21.313-47.6 47.6-47.6z"/><path d="m2655.445 2876.003c6.515-30.77-1.442-63.49-23.362-86.045-17.303-17.805-41.487-28.889-68.208-28.907l-86.263-.064c-.534.023-1.034.163-1.58.163s-1.058-.139-1.604-.163l-569.805-.401h-.302c-138.373 0-268.226 66.835-348.639 179.444l-320.802 449.244c-11.249 15.753.012 37.631 19.369 37.631h681.763c2.196 0 4.288.36 6.392.645h556.61c52.599 0 103.044-20.895 140.237-58.088l751.792-751.792c51.95-51.95 49.089-138.272-8.583-186.437-50.526-42.196-125.669-36.51-172.216 10.039l-457.892 457.903c-2.776 2.776-4.719 6.246-5.813 10.017-23.001 79.323-96.097 137.558-182.732 137.558h-545.721c-23.942 0-45.402-16.969-48.744-40.677-4.139-29.363 18.55-54.522 47.111-54.522h547.354c22.146 0 42.496-7.624 58.641-20.374 17.173-13.561 28.369-33.307 32.901-54.714z"/><g><path d="m2930.798 1452.173c-7.038 0-14.189-1.046-21.262-3.248-37.646-11.731-58.657-51.76-46.927-89.407 11.959-38.385 18.023-79.285 18.023-121.568 0-274.699-236.221-452.2-601.8-452.2-299.89 0-595.782 110.133-736.291 274.054-25.661 29.936-70.735 33.399-100.676 7.745-29.94-25.665-33.406-70.738-7.743-100.679 168.669-196.774 500.237-323.921 844.71-323.921 514.363 0 744.6 298.836 744.6 595 0 56.705-8.239 111.899-24.487 164.043-9.527 30.576-37.724 50.181-68.147 50.181z"/></g></g></svg>