<svg id="Layer_1_copy_3" height="512" viewBox="0 0 48 48" width="512" xmlns="http://www.w3.org/2000/svg" data-name="Layer 1 copy 3"><path d="m24 1.5a22.5 22.5 0 1 0 22.5 22.5 22.5 22.5 0 0 0 -22.5-22.5zm9.171 31.081a11.37 11.37 0 0 1 -18.171-4.693h-2.185a1.5 1.5 0 0 1 0-3h1.533c-.022-.288-.048-.588-.048-.888s.022-.6.045-.892h-1.53a1.5 1.5 0 0 1 0-3h2.185a11.391 11.391 0 0 1 10.682-7.491 11.267 11.267 0 0 1 7.03 2.43 1.5 1.5 0 1 1 -1.853 2.358 8.3 8.3 0 0 0 -5.177-1.788 8.387 8.387 0 0 0 -7.418 4.491h6.241a1.5 1.5 0 0 1 0 3h-7.153a8.466 8.466 0 0 0 -.052.892 8.6 8.6 0 0 0 .047.884h7.158a1.5 1.5 0 0 1 0 3h-6.24a8.376 8.376 0 0 0 12.935 2.437 1.5 1.5 0 0 1 1.973 2.26z" fill="rgb(0,0,0)"/></svg>