<svg id="Capa_1" enable-background="new 0 0 512 512" height="512" viewBox="0 0 512 512" width="512" xmlns="http://www.w3.org/2000/svg"><g><path d="m41.985 6.503c-.029-.078-.061-.156-.092-.233-1.564-3.81-5.234-6.27-9.351-6.27-.003 0-.006 0-.008 0-4.121.003-7.791 2.47-9.351 6.283-.026.065-.053.131-.077.197l-22.53 59.156c-1.721 4.516.546 9.571 5.062 11.291 4.518 1.721 9.571-.547 11.291-5.062l3.465-9.097h24.12l3.424 9.072c1.322 3.504 4.652 5.663 8.188 5.662 1.027 0 2.071-.182 3.089-.565 4.521-1.706 6.803-6.755 5.097-11.276zm-14.926 38.765 5.45-14.31 5.4 14.31z"/><path d="m124.2 76.927c1.025.391 2.077.575 3.112.575 3.526 0 6.85-2.146 8.179-5.638l3.465-9.097h24.12l3.424 9.072c1.706 4.522 6.757 6.799 11.276 5.097 4.521-1.706 6.803-6.755 5.097-11.276l-22.326-59.157c-.03-.08-.062-.16-.095-.239-1.565-3.806-5.235-6.264-9.349-6.264-.002 0-.005 0-.008 0-4.117.003-7.786 2.467-9.348 6.277-.027.067-.055.135-.08.203l-22.529 59.155c-1.721 4.516.547 9.572 5.062 11.292zm26.871-45.969 5.4 14.31h-10.85z"/><path d="m281.2 76.927c1.025.391 2.077.575 3.112.575 3.526 0 6.85-2.146 8.179-5.638l3.465-9.097h24.12l3.424 9.072c1.706 4.522 6.756 6.799 11.276 5.097 4.521-1.706 6.803-6.755 5.097-11.276l-22.326-59.157c-.03-.08-.062-.16-.095-.239-1.565-3.806-5.235-6.264-9.349-6.264-.002 0-.005 0-.008 0-4.117.003-7.786 2.467-9.348 6.277-.027.067-.055.135-.08.203l-22.529 59.155c-1.721 4.516.547 9.572 5.062 11.292zm26.871-45.969 5.4 14.31h-10.85z"/><path d="m448.506 59.949c-.017 0-.033 0-.05 0-4.167.023-8.562.041-12.211.048v-51.247c0-4.832-3.918-8.75-8.75-8.75s-8.75 3.918-8.75 8.75v59.949c0 4.259 3.066 7.899 7.265 8.623.638.109 1.061.183 7.698.183 3.229 0 7.933-.017 14.846-.056 4.833-.027 8.729-3.967 8.701-8.799-.027-4.816-3.94-8.701-8.749-8.701z"/><path d="m234.516 77.322c.638.109 1.061.183 7.698.183 3.229 0 7.933-.017 14.846-.056 4.833-.027 8.729-3.967 8.701-8.799-.027-4.816-3.939-8.701-8.749-8.701-.017 0-.033 0-.05 0-4.167.023-8.562.041-12.211.048v-51.247c0-4.832-3.918-8.75-8.75-8.75s-8.75 3.918-8.75 8.75v59.949c0 4.259 3.066 7.9 7.265 8.623z"/><path d="m503.25 59.452h-16.301v-12.225h14.454c4.832 0 8.75-3.918 8.75-8.75s-3.918-8.75-8.75-8.75h-14.454v-12.227h16.301c4.832 0 8.75-3.918 8.75-8.75s-3.918-8.75-8.75-8.75h-25.051c-4.832 0-8.75 3.918-8.75 8.75v59.452c0 4.832 3.918 8.75 8.75 8.75h25.051c4.832 0 8.75-3.918 8.75-8.75s-3.918-8.75-8.75-8.75z"/><path d="m360.689 77.5h.039s16.019-.071 20.434-.071c13.73 0 24.9-11.17 24.9-24.9 0-7.425-3.27-14.096-8.441-18.662 1.938-3.328 3.053-7.19 3.053-11.311 0-12.438-10.119-22.556-22.557-22.556h-17.429c-4.832 0-8.75 3.918-8.75 8.75v27.628.045 32.327c0 2.327.927 4.559 2.576 6.201 1.641 1.633 3.861 2.549 6.175 2.549zm8.75-60h8.679c2.788 0 5.057 2.268 5.057 5.056s-2.269 5.057-5.057 5.057c-1.261 0-3.616.007-6.198.016h-2.481zm0 27.637c.843-.003 1.69-.006 2.516-.009h9.207c4.081 0 7.4 3.319 7.4 7.4s-3.319 7.4-7.4 7.4c-2.185 0-7.199.018-11.723.035z"/><path d="m92.241 77.501c4.296-.027 8.114-2.777 9.521-6.908l19.59-58.972c1.523-4.586-.959-9.539-5.545-11.062-4.593-1.528-9.54.96-11.062 5.545l-12.722 38.297-13.37-38.519c-1.585-4.565-6.57-6.979-11.136-5.397-4.565 1.585-6.981 6.57-5.397 11.136l20.535 59.157c1.43 4.028 5.251 6.724 9.521 6.724.021-.001.044-.001.065-.001z"/><path d="m204 77.5c4.832 0 8.75-3.918 8.75-8.75v-60c0-4.832-3.918-8.75-8.75-8.75s-8.75 3.918-8.75 8.75v60c0 4.832 3.918 8.75 8.75 8.75z"/><path d="m242 216.25c31.017 0 56.25-25.233 56.25-56.25s-25.233-56.25-56.25-56.25-56.25 25.233-56.25 56.25 25.233 56.25 56.25 56.25zm0-90c18.609 0 33.75 15.141 33.75 33.75s-15.141 33.75-33.75 33.75-33.75-15.141-33.75-33.75 15.141-33.75 33.75-33.75z"/><path d="m162.536 214.692c5.334-1.668 8.78-6.663 8.78-12.726 0-.036 0-.072-.001-.108l-.841-86.967c-.061-6.213-5.146-11.213-11.357-11.141-6.213.06-11.201 5.145-11.141 11.357l.53 54.847-42.25-61.18c-2.797-4.052-7.904-5.814-12.604-4.348-4.701 1.465-7.902 5.816-7.902 10.74v89.834c0 6.213 5.037 11.25 11.25 11.25s11.25-5.037 11.25-11.25v-53.743l40.238 58.268c3.308 4.772 8.823 6.8 14.048 5.167z"/><path d="m417.196 104.132c-6.099-1.214-12.018 2.745-13.229 8.837l-10.43 52.402-16.538-53.684c-1.829-5.937-8.126-9.264-14.063-7.438-4.032 1.242-6.856 4.545-7.684 8.396l-16.322 52.732-10.397-52.561c-1.205-6.096-7.13-10.055-13.219-8.854-6.096 1.206-10.06 7.124-8.854 13.219l17.535 88.648c.106.537.251 1.065.435 1.581 1.88 5.296 6.901 8.838 12.515 8.838h.089c5.649-.037 10.667-3.656 12.485-9.005.034-.098.065-.196.097-.296l16.633-53.738 16.558 53.749c.046.151.097.302.149.451 1.88 5.296 6.902 8.838 12.516 8.838h.089c5.649-.037 10.667-3.656 12.485-9.005.159-.466.287-.942.383-1.426l17.604-88.458c1.213-6.09-2.743-12.014-8.837-13.226z"/><path d="m256.001 242c-74.439 0-135 60.561-135 135s60.561 135 135 135 135-60.561 135-135-60.561-135-135-135zm63.639 110.251-70.71 70.711c-5.858 5.858-15.355 5.858-21.213 0l-35.355-35.355c-5.858-5.858-5.858-15.355 0-21.213s15.355-5.858 21.213 0l24.749 24.749 60.104-60.104c5.858-5.858 15.355-5.858 21.213 0 5.857 5.857 5.857 15.354-.001 21.212z"/></g></svg>