<svg height="512" viewBox="0 0 64 64" width="512" xmlns="http://www.w3.org/2000/svg"><g id="Icon"><path d="m38.33075 15.02087a3.99792 3.99792 0 0 0 -1.29242 3.51545 10.94164 10.94164 0 0 0 -5.89966 9.92559 23.05353 23.05353 0 0 1 -1.15857 7.53809h22.04a23.04631 23.04631 0 0 1 -1.15881-7.53809 10.93991 10.93991 0 0 0 -5.91571-9.93408 3.98276 3.98276 0 0 0 -6.61487-3.507zm4.654 2.81513a9.02891 9.02891 0 0 0 -3.97259.00085 1.99193 1.99193 0 0 1 3.97264-.00085zm10.10216 23.69623a2.96167 2.96167 0 0 1 -2.57519 1.46777h-19.02344a2.96167 2.96167 0 0 1 -2.57519-1.46777 2.9965 2.9965 0 0 1 -.03809-3c.08942-.16217.18134-.34894.27283-.53223h23.70517c.09155.18329.18347.37006.273.53223a2.99889 2.99889 0 0 1 -.03909 3zm-16.66308 3.46777h9.15234a4.99022 4.99022 0 0 1 -9.15234 0zm4.57617 7h-28v-42h28v2a5.96023 5.96023 0 0 1 2 .35v-7.35a3.00879 3.00879 0 0 0 -3-3h-26a3.00879 3.00879 0 0 0 -3 3v54a3.00879 3.00879 0 0 0 3 3h26a3.00879 3.00879 0 0 0 3-3v-9.29486a6.96919 6.96919 0 0 1 -2 .29486zm-11 6h-6a1 1 0 0 1 0-2h6a1 1 0 0 1 0 2z"/></g></svg>