<svg xmlns="http://www.w3.org/2000/svg" version="1.1" xmlns:xlink="http://www.w3.org/1999/xlink" xmlns:svgjs="http://svgjs.com/svgjs" width="512" height="512" x="0" y="0" viewBox="0 0 64 64" style="enable-background:new 0 0 512 512" xml:space="preserve"><g><path d="M42.76 19.05a5.508 5.508 0 0 0-1.83 4.11v26.09l-4.55-2.6a.695.695 0 0 0-.71 0l-5.27 3.01-5.28-3.01a.677.677 0 0 0-.7 0l-4.56 2.6c-.01 0 0-26.09 0-26.09a4.108 4.108 0 0 1 4.1-4.11z" fill="#282828" data-original="#000000"></path><path d="M50.57 15.13v6.42a.894.894 0 0 1-.89.9h-7.26a4.112 4.112 0 0 1 4.04-3.4.71.71 0 0 0 0-1.42H17.54a.71.71 0 0 0 0 1.42h2.73a5.533 5.533 0 0 0-1.79 3.4h-4.16a.894.894 0 0 1-.89-.9v-6.42a.894.894 0 0 1 .89-.9h35.36a.894.894 0 0 1 .89.9z" fill="#282828" data-original="#000000"></path><path d="M32 0a32 32 0 1 0 32 32A32.004 32.004 0 0 0 32 0zm20 21.55a2.33 2.33 0 0 1-2.32 2.33h-7.32v26.6a.718.718 0 0 1-.36.62.695.695 0 0 1-.71 0l-5.27-3.01-5.27 3.01a.695.695 0 0 1-.71 0l-5.27-3.01-5.27 3.01a.71.71 0 0 1-1.07-.62v-26.6h-4.11A2.33 2.33 0 0 1 12 21.55v-6.42a2.33 2.33 0 0 1 2.32-2.33h35.36A2.33 2.33 0 0 1 52 15.13z" fill="#282828" data-original="#000000"></path></g></svg>