<svg id="Layer_1" enable-background="new 0 0 53 53" height="512" viewBox="0 0 53 53" width="512" xmlns="http://www.w3.org/2000/svg"><g id="_x33_4_1_"><g><path d="m19.2450256 11.0900269c.4400024-1.7299805 2.0099487-3 3.8699951-3h14.1199951v-1.5900269c0-2.2099609-1.7900391-4-4-4h-24.1799926c-2.2000122 0-4 1.7900391-4 4v40c0 2.2000122 1.7999878 4 4 4h24.1799927c2.2299805 0 4-1.8499756 4-4v-1.5899658h-14.1199951c-1.8600464 0-3.4299927-1.2700195-3.8699951-3h-10.1600342v-30.8200073zm-.1700439-5.2999878h4.1400146c.5499878 0 1 .4499512 1 1 0 .5499878-.4500122 1-1 1h-4.1400146c-.5499878 0-1-.4500122-1-1 0-.5500489.4500122-1 1-1zm1.4800415 39.4099731h1.1799927c.5499878 0 1 .4500122 1 1s-.4500122 1-1 1h-1.1799927c-.5500488 0-1-.4500122-1-1s.4499512-1 1-1z"/></g><g><path d="m45.9449768 10.0900269h-22.829956c-1.1100464 0-2 .8900146-2 2v28.8200073c0 1.0999756.8899536 2 2 2h22.8299561c1.1000366 0 2-.9000244 2-2v-28.8200073c-.0000001-1.1099854-.8999635-2-2.0000001-2zm-12.0199585 4.3099975h6.4599609c.5500488 0 1 .4500122 1 1s-.4499512 1-1 1h-6.4599609c-.5500488 0-1-.4500122-1-1s.4499512-1 1-1zm-8.8200073.6900025c0-.5499878.4500122-1 1-1h3c.5499878 0 1 .4500122 1 1v2.9899902c0 .5499878-.4500122 1-1 1h-3c-.5499878 0-1-.4500122-1-1zm5 22.8200073c0 .5499878-.4500122 1-1 1h-3c-.5499878 0-1-.4500122-1-1v-2.9899902c0-.5599976.4500122-1 1-1h3c.5499878 0 1 .4400024 1 1zm.9799805-12.6400147-3.2000122 3.5999756c-.2799683.3200073-.6799927.5-1.1099854.5200195h-.039978c-.4100342 0-.7999878-.1599731-1.0900269-.4500122l-1.4799805-1.4799805c-.3900146-.3900146-.3900146-1.0300293 0-1.4199829.3900146-.3900146 1.0200195-.3900146 1.4099731 0l1.1400146 1.1399536 2.8800049-3.2399902c.3699951-.4099731 1-.4500122 1.4099731-.0799561.4200441.3699952.4500124 1.0000001.0800173 1.4099732zm12.8599853 14.6400147h-10.0199585c-.5500488 0-1-.4500122-1-1 0-.5599976.4499512-1 1-1h10.0199585c.5500488 0 1 .4400024 1 1 0 .5499878-.4499512 1-1 1zm-11.0199585-4.6900025c0-.5499878.4499512-1 1-1h6.4599609c.5500488 0 1 .4500122 1 1 0 .5599976-.4499512 1-1 1h-6.4599609c-.5500488 0-1-.4400024-1-1zm11.0199585-5.2300415h-10.0199585c-.5500488 0-1-.4399414-1-1 0-.5499878.4499512-1 1-1h10.0199585c.5500488 0 1 .4500122 1 1 0 .5600586-.4499512 1-1 1zm-11.0199585-4.6799926c0-.5499878.4499512-1 1-1h6.4599609c.5500488 0 1 .4500122 1 1 0 .5500488-.4499512 1-1 1h-6.4599609c-.5500488 0-1-.4499512-1-1zm11.0199585-5.2299805h-10.0199585c-.5500488 0-1-.4500122-1-1s.4499512-1 1-1h10.0199585c.5500488 0 1 .4500122 1 1s-.4499512 1-1 1z"/></g></g></svg>