<svg xmlns="http://www.w3.org/2000/svg" version="1.1" xmlns:xlink="http://www.w3.org/1999/xlink" xmlns:svgjs="http://svgjs.com/svgjs" width="512" height="512" x="0" y="0" viewBox="0 0 512 512" style="enable-background:new 0 0 512 512" xml:space="preserve"><g><path d="M332.4 427.711a5.012 5.012 0 0 1-.724 1.733 5.012 5.012 0 0 1 1.733-.724l9.048-1.9a60.637 60.637 0 0 0 24.769-11.463l-21.464-21.465a60.611 60.611 0 0 0-11.462 24.771z" fill="#282828" data-original="#000000"></path><path d="M336.9 438.206a47.8 47.8 0 0 1-10.464 7.989 13.732 13.732 0 0 1-6.251 1.779 6.92 6.92 0 0 1-5.044-1.989c-1.492-1.493-3.5-4.945-.209-11.3a47.712 47.712 0 0 1 7.988-10.465l1.6-7.614a70.627 70.627 0 0 1 19.228-35.528l24.181-24.178V90.818a18.562 18.562 0 0 0-18.541-18.541h-62.27v7.973a5 5 0 0 1-5 5H126.442a5 5 0 0 1-5-5v-7.973h-62.27a18.561 18.561 0 0 0-18.541 18.541v381.026a18.561 18.561 0 0 0 18.541 18.541h290.216a18.562 18.562 0 0 0 18.541-18.541V427.09a70.644 70.644 0 0 1-23.416 9.519zM117.3 347.3l-31 31.007a5 5 0 0 1-7.07 0l-10.7-10.7a5 5 0 0 1 7.071-7.071l7.164 7.163 27.47-27.469a5 5 0 1 1 7.071 7.07zm0-54.565-31.006 31a5 5 0 0 1-7.07 0l-10.7-10.7a5 5 0 1 1 7.071-7.07l7.164 7.163 27.47-27.47a5 5 0 0 1 7.071 7.071zm0-91.8-31 31.007a5 5 0 0 1-7.07 0l-10.7-10.7a5 5 0 0 1 7.071-7.07l7.164 7.163 27.47-27.47a5 5 0 0 1 7.071 7.071zm0-54.566-31 31.007a5 5 0 0 1-7.07 0l-10.7-10.7a5 5 0 0 1 7.071-7.07l7.164 7.163 27.47-27.47a5 5 0 0 1 7.071 7.07zm213.762 155.758h-73.494a5 5 0 1 1 0-10h73.494a5 5 0 0 1 0 10zM291.37 151.109h39.692a5 5 0 0 1 0 10H291.37a5 5 0 0 1 0-10zm-94.473 0h67.261a5 5 0 0 1 0 10H196.9a5 5 0 0 1 0-10zm-56.22 0h29.691a5 5 0 0 1 0 10h-29.691a5 5 0 0 1 0-10zm0 19.738h75.261a5 5 0 0 1 0 10h-75.261a5 5 0 0 1 0-10zm0 20.154h150.385a5 5 0 0 1 0 10H140.677a5 5 0 0 1 0-10zm0 20h190.385a5 5 0 0 1 0 10H140.677a5 5 0 0 1 0-10zm96.9 86.126a5 5 0 0 1-5 5h-12.639a5 5 0 0 1 0-10h12.643a5 5 0 0 1 5 5zm-37.63 0a5 5 0 0 1-5 5h-12.639a5 5 0 0 1 0-10h12.643a5 5 0 0 1 5 5zm-59.274-5h12.647a5 5 0 0 1 0 10h-12.643a5 5 0 1 1 0-10zm0 23.079h145.265a5 5 0 0 1 0 10H140.677a5 5 0 0 1 0-10zm0 28.813h188.68a5 5 0 1 1 0 10H140.677a5 5 0 0 1 0-10zm0 23.345h85.261a5 5 0 0 1 0 10h-85.257a5 5 0 1 1 0-10zM300.2 456.542h-39.449L244.4 472.873a5 5 0 0 1-8.507-3.034l-2.719-26.825-7.833 13.421a5 5 0 0 1-4.318 2.479h-22.058a4.991 4.991 0 0 1-1.681-.291l-8.909-3.179-13.616 3.328a5 5 0 0 1-4.819-1.42l-16.64-17.569-17.719 17.671a5 5 0 0 1-7.063-7.08l21.354-21.3a4.783 4.783 0 0 1 3.6-1.459 5 5 0 0 1 3.559 1.562l18.168 19.185 12.251-2.994a5.024 5.024 0 0 1 2.868.149l9.506 3.392h18.318l14.129-24.21a5 5 0 0 1 9.293 2.017l3.207 31.641L255.148 448a5 5 0 0 1 3.534-1.462H300.2a5 5 0 0 1 0 10z" fill="#282828" data-original="#000000"></path><path d="M151.544 20.385a20.125 20.125 0 0 0-20.1 20.1V75.25h145.674V40.487a20.124 20.124 0 0 0-20.1-20.1zm2.424 24.25h-9.5a5 5 0 0 1 0-10h9.5a5 5 0 0 1 0 10zm87.793 0h-60.275a5 5 0 0 1 0-10h60.275a5 5 0 1 1 0 10zM352.414 386.479l51.64-51.64 22.151 22.152-51.64 51.64zM455.7 289.762a15.617 15.617 0 0 0-11.077 4.581l-1.722 1.722 22.156 22.155 1.721-1.722a15.659 15.659 0 0 0-11.078-26.736zM411.128 327.764l24.623-24.623 22.152 22.152-24.623 24.623z" fill="#282828" data-original="#000000"></path></g></svg>