<svg xmlns="http://www.w3.org/2000/svg" version="1.1" xmlns:xlink="http://www.w3.org/1999/xlink" xmlns:svgjs="http://svgjs.com/svgjs" width="512" height="512" x="0" y="0" viewBox="0 0 512 512" style="enable-background:new 0 0 512 512" xml:space="preserve"><g><path fill-rule="evenodd" d="M457.061 125.769a7.975 7.975 0 1 1 13.375-8.688A254.6 254.6 0 0 1 511.5 256c0 141.107-114.393 255.5-255.5 255.5a254.62 254.62 0 0 1-173.382-67.9l2.348 29.249a7.993 7.993 0 0 1-15.938 1.25l-4.053-50.51A8.025 8.025 0 0 1 73.7 415l50.379 4.042a7.993 7.993 0 0 1-1.25 15.937l-28.544-2.29A238.6 238.6 0 0 0 256 495.5c132.273 0 239.5-107.227 239.5-239.5a238.309 238.309 0 0 0-38.439-130.231zM352.843 331.83c-24.926 8.432-59.178 13.648-96.843 13.648s-71.916-5.216-96.843-13.648c-11.487-3.886-21.141-8.574-28.49-13.9v47.19c0 8.64 12.846 17.306 33.615 24.332 23.33 7.892 55.746 12.773 91.718 12.773s68.389-4.881 91.718-12.774c20.769-7.025 33.615-15.691 33.615-24.331v-47.191c-7.349 5.327-17.003 10.015-28.49 13.901zm-87.061 50.387h-19.563a8 8 0 1 1 0-16h19.563a8 8 0 0 1 0 16zm87.061-123.134c-24.926 8.432-59.178 13.648-96.843 13.648s-71.916-5.216-96.843-13.648c-11.487-3.886-21.141-8.573-28.49-13.9v47.191c0 8.64 12.846 17.306 33.615 24.332 23.329 7.892 55.746 12.773 91.718 12.773s68.389-4.881 91.718-12.773c20.769-7.026 33.615-15.692 33.615-24.332v-47.192c-7.349 5.328-17.003 10.018-28.49 13.901zm-87.061 50.387h-19.563a8 8 0 0 1 0-16h19.563a8 8 0 0 1 0 16zm87.061-123.134c-24.927 8.433-59.178 13.648-96.843 13.648s-71.916-5.215-96.843-13.648c-11.487-3.886-21.141-8.574-28.49-13.9v47.191c0 8.64 12.846 17.306 33.615 24.332 23.329 7.891 55.746 12.773 91.718 12.773s68.389-4.882 91.718-12.773c20.769-7.026 33.615-15.692 33.615-24.332v-47.192c-7.349 5.328-17.003 10.015-28.49 13.901zm-87.061 49.656h-19.563a8 8 0 0 1 0-16h19.563a8 8 0 0 1 0 16zm-135.115-89.113c0 8.64 12.846 17.306 33.615 24.332 23.33 7.892 55.746 12.773 91.718 12.773s68.389-4.881 91.718-12.773c20.769-7.026 33.615-15.692 33.615-24.332s-12.846-17.3-33.615-24.33c-23.329-7.892-55.745-12.774-91.718-12.774-69.219 0-125.333 16.612-125.333 37.1zM427.034 39.155l2.346 29.231A254.653 254.653 0 0 0 256 .5C114.893.5.5 114.893.5 256a254.584 254.584 0 0 0 41.078 138.92 7.975 7.975 0 0 0 13.375-8.688A238.3 238.3 0 0 1 16.5 256C16.5 123.727 123.727 16.5 256 16.5a238.637 238.637 0 0 1 161.736 62.811l-28.565-2.292a7.993 7.993 0 0 0-1.25 15.938L438.3 97a8.025 8.025 0 0 0 8.725-8.583l-4.053-50.51a7.993 7.993 0 1 0-15.938 1.25z" fill="#282828" data-original="#000000"></path></g></svg>