<svg xmlns="http://www.w3.org/2000/svg" version="1.1" xmlns:xlink="http://www.w3.org/1999/xlink" xmlns:svgjs="http://svgjs.com/svgjs" width="512" height="512" x="0" y="0" viewBox="0 0 32 32" style="enable-background:new 0 0 512 512" xml:space="preserve"><g><path d="m17 6.05v-2.05h1a1 1 0 0 0 0-2h-4a1 1 0 0 0 0 2h1v2.05a11.9 11.9 0 0 0 -6.74 2.8l-.85-.85.3-.29a1 1 0 0 0 -1.42-1.42l-2 2a1 1 0 0 0 1.42 1.42l.29-.3.85.85a12 12 0 1 0 10.15-4.21zm-1 21.95a10 10 0 1 1 10-10 10 10 0 0 1 -10 10z" fill="#282828" data-original="#000000"></path><path d="m17 17v-4a1 1 0 0 0 -2 0v4.46a1 1 0 0 0 .34.75l4 3.54a1 1 0 1 0 1.32-1.5z" fill="#282828" data-original="#000000"></path></g></svg>