<svg id="bold" height="512" viewBox="0 0 24 24" width="512" xmlns="http://www.w3.org/2000/svg"><path d="m17.5 11c-3.584 0-6.5 2.916-6.5 6.5s2.916 6.5 6.5 6.5 6.5-2.916 6.5-6.5-2.916-6.5-6.5-6.5zm2.5 7.5h-1.5v1.5c0 .552-.448 1-1 1s-1-.448-1-1v-1.5h-1.5c-.552 0-1-.448-1-1s.448-1 1-1h1.5v-1.5c0-.552.448-1 1-1s1 .448 1 1v1.5h1.5c.552 0 1 .448 1 1s-.448 1-1 1z"/><path d="m23 8h-22c-.552 0-1-.448-1-1s.448-1 1-1h22c.552 0 1 .448 1 1s-.448 1-1 1z"/><path d="m12 8c-.256 0-.512-.098-.707-.293-.391-.391-.391-1.023 0-1.414l5-5c.391-.391 1.023-.391 1.414 0s.391 1.023 0 1.414l-5 5c-.195.195-.451.293-.707.293z"/><path d="m7.749 22.75c-.471 0-.89-.333-.981-.813l-2-10.5c-.103-.542.253-1.066.795-1.169.543-.1 1.066.253 1.169.795l2 10.5c.103.542-.253 1.066-.795 1.169-.063.012-.126.018-.188.018z"/><path d="m2 10c-1.1 0-2 .9-2 2 0 .11.01.21.03.31 0 .03.01.08.01.11l2 8.97c.18.93 1.01 1.61 1.96 1.61h7.02c-.51-.6-.94-1.28-1.27-2.01l-5.75-.01-2-8.98 9.03-.01c.69-.81 1.53-1.49 2.48-1.99z"/></svg>