<svg id="Layer_1" height="512" viewBox="0 0 64 64" width="512" xmlns="http://www.w3.org/2000/svg"><g><path d="m57.851 10.463h-15.255v-2.706c0-2.623-2.134-4.757-4.757-4.757h-11.678c-2.623 0-4.757 2.134-4.757 4.757v2.706h-15.255c-.552 0-1 .447-1 1s.448 1 1 1h2.999l3.622 42.74c.274 3.251 3.045 5.797 6.308 5.797h25.845c3.262 0 6.033-2.546 6.308-5.797l3.622-42.74h2.999c.552 0 1-.447 1-1s-.449-1-1.001-1zm-34.447-2.706c0-1.521 1.237-2.757 2.757-2.757h11.678c1.52 0 2.757 1.236 2.757 2.757v2.706h-17.192zm25.833 47.278c-.188 2.224-2.083 3.965-4.315 3.965h-25.844c-2.231 0-4.127-1.741-4.315-3.965l-3.607-42.572h41.689z"/><path d="m25.832 23.359c-.552 0-1 .447-1 1v17.82c0 .553.448 1 1 1s1-.447 1-1v-17.82c0-.552-.448-1-1-1z"/><path d="m38.168 23.359c-.552 0-1 .447-1 1v17.82c0 .553.448 1 1 1s1-.447 1-1v-17.82c0-.552-.447-1-1-1z"/></g></svg>