<svg id="gyhlp" height="512" viewBox="0 0 64 64" width="512" xmlns="http://www.w3.org/2000/svg"><g fill="rgb(0,0,0)"><path d="m51.66 4.66h-39.32a.99655.99655 0 0 0 -1 1v4.8h-3.34a1 1 0 0 0 0 2c1.2602-.00118 4.1117.00085 5.34 0 0 0 3.00995-.05 3.15-.13a.98085.98085 0 0 1 .51.86 1.003 1.003 0 0 1 -1 1h-4.66v9.73h-3.34a1.0001 1.0001 0 0 0 0 2c1.26076.01653 4.11113-.01191 5.34 0 .38068-.05117 2.87824.13291 3.16-.14a1.00038 1.00038 0 0 1 -.5 1.86c-1.14153.008-3.53221-.00575-4.65992 0v9.73h-3.34008a1.00013 1.00013 0 0 0 0 2c1.26076-.01673 4.11113.01207 5.34 0 .371-.04178 2.87354.12021 3.15-.12991a.99763.99763 0 0 1 -.49 1.85991c-1.14152-.01367-3.5322.0099-4.65991 0v9.72h-3.34009a1.00013 1.00013 0 0 0 0 2c1.26015.0012 4.11164-.00085 5.34 0 .37413-.04836 2.87005.12476 3.15-.13a.99791.99791 0 0 1 -.49 1.86c-1.14152-.03534-3.5322.02552-4.65991-.00005v3.79005a.99651.99651 0 0 0 1 1h39.31991a.99651.99651 0 0 0 1-1v-52.68a.99655.99655 0 0 0 -1-1zm-34 22.92h.99a13.39142 13.39142 0 0 1 12.35-13.81v-1.77a1 1 0 0 1 2 0v1.77a13.3633 13.3633 0 0 1 12.35 13.31v.5h.99a.99029.99029 0 0 1 1 1 5.403 5.403 0 0 1 -5.4 5.4h-19.88a5.403 5.403 0 0 1 -5.4-5.4.99029.99029 0 0 1 1-1zm3 18.58a1.00011 1.00011 0 0 1 0-2h22.68a1.00012 1.00012 0 0 1 -.00005 2zm22.16 5.09a.99655.99655 0 0 1 -1 1h-19.64a1 1 0 0 1 0-2h19.64a.99029.99029 0 0 1 1 1zm-23.75-11.18a1.00012 1.00012 0 0 1 .00005-2h25.85995a1.00011 1.00011 0 0 1 0 2z"/><path d="m43.35 27.08a11.35535 11.35535 0 1 0 -22.69992.5h22.69992zm-2.86-3.28a1.005 1.005 0 0 1 -1.34-.46 7.58779 7.58779 0 0 0 -5.34-4.09.99837.99837 0 0 1 .38-1.96 9.56821 9.56821 0 0 1 6.76 5.17 1.00015 1.00015 0 0 1 -.46 1.34z"/><path d="m22.06 31.98h19.88a3.39378 3.39378 0 0 0 3.25-2.4h-26.38a3.39378 3.39378 0 0 0 3.25 2.4z"/></g></svg>