<svg height="512" viewBox="0 0 480 480" width="512" xmlns="http://www.w3.org/2000/svg"><g id="Layer_2" data-name="Layer 2"><g id="dotted_menu__3" data-name="dotted_menu_ 3"><path d="m240 0c-132.55 0-240 107.45-240 240s107.45 240 240 240 240-107.45 240-240-107.45-240-240-240zm-91 357.2a29 29 0 1 1 29-29 29 29 0 0 1 -29 29zm0-88.2a29 29 0 1 1 29-29 29 29 0 0 1 -29 29zm0-88.18a29 29 0 1 1 29-29 29 29 0 0 1 -29 29.03zm91 176.38a29 29 0 1 1 29-29 29 29 0 0 1 -29 29zm0-88.2a29 29 0 1 1 29-29 29 29 0 0 1 -29 29zm0-88.18a29 29 0 1 1 29-29 29 29 0 0 1 -29 29.03zm91 176.38a29 29 0 1 1 29-29 29 29 0 0 1 -29 29zm0-88.2a29 29 0 1 1 29-29 29 29 0 0 1 -29 29zm0-88.18a29 29 0 1 1 29-29 29 29 0 0 1 -29 29.03z"/></g></g></svg>