<svg enable-background="new 0 0 512 512" height="512" viewBox="0 0 512 512" width="512" xmlns="http://www.w3.org/2000/svg"><g id="_x33_2_Hourglass"><g><path d="m396.656 460.678h-6.756v-28.923c0-60.485-29.715-118.437-79.432-154.907-14.092-10.292-14.198-31.245.053-41.695 49.665-36.523 79.38-94.423 79.38-154.907v-28.924h6.756c13.986 0 25.387-11.505 25.387-25.651s-11.4-25.651-25.387-25.651h-281.313c-13.986 0-25.387 11.505-25.387 25.651s11.4 25.651 25.387 25.651h6.756v28.923c0 60.485 29.662 118.384 79.38 154.907 14.198 10.397 14.145 31.35.053 41.695-49.718 36.471-79.432 94.422-79.432 154.907v28.923h-6.756c-13.986 0-25.387 11.505-25.387 25.651s11.4 25.651 25.387 25.651h281.313c13.986 0 25.387-11.505 25.387-25.651s-11.402-25.65-25.389-25.65zm-258.723-28.923c0-55.471 27.287-108.62 72.994-142.134 22.642-16.626 22.801-50.509-.053-67.241-45.654-33.515-72.941-86.664-72.941-142.134v-28.924h236.134v28.923c0 55.471-27.287 108.62-72.941 142.134-22.801 16.731-22.748 50.562-.053 67.241 45.707 33.515 72.994 86.664 72.994 142.134v28.923h-236.134z"/><path d="m317.879 368.277c-3.284-2.703-6.727-5.165-10.3-7.38-26.678-16.537-43.664-44.949-43.664-76.336v-57.187c0-9.533 5.877-18.326 14.942-21.279 11.114-3.62 21.339-9.871 29.738-18.419 3.281-3.339 6.333-6.847 9.274-10.432h-123.74c2.941 3.584 5.993 7.093 9.273 10.431 8.399 8.548 18.623 14.8 29.737 18.419 9.064 2.952 14.942 11.745 14.942 21.279v57.187c0 31.388-16.987 59.799-43.665 76.336-3.574 2.215-7.016 4.676-10.3 7.379-22.431 18.46-35.016 41.49-35.016 65.824v4.895l193.796.001v-4.895c0-24.332-12.585-47.361-35.017-65.823z"/></g></g></svg>