<svg height="512" viewBox="0 0 96 96" width="512" xmlns="http://www.w3.org/2000/svg"><g id="Scooter"><path d="m91 60.75a4.91 4.91 0 0 1 -3-.11 11 11 0 0 0 -14.53 9.08l-.2 1.81h-3.27a13 13 0 1 0 21-10.78zm-8 17.31a7 7 0 1 1 7-7 7.07 7.07 0 0 1 -7 7z"/><path d="m83 66a5 5 0 1 0 5 5 5 5 0 0 0 -5-5z"/><path d="m88.64 58.71a3 3 0 0 0 3-5 16.91 16.91 0 0 0 -11.82-4.59c-.22 3.78-1.32 5.88-3.65 11.76a13 13 0 0 1 12.47-2.17z"/><path d="m21.24 48h-7.6a19 19 0 0 0 -6.43 11.06l-1.39 7.56a2.43 2.43 0 0 0 2.39 2.87c.11 0-.07.89 1.75-10.33a13.43 13.43 0 0 1 11.28-11.16z"/><path d="m57.61 62.09h-4.75a4.06 4.06 0 0 1 -4-3.25l-2-9.57a7.14 7.14 0 0 0 -2.62-4.27c-1.71.69-2.21.53-10.61.53a5.27 5.27 0 0 1 -4.17-2h-2.59v1.08a3.42 3.42 0 0 1 -2.41 3.26h12.54a5.78 5.78 0 0 1 5.7 4.77l3 16.88h11.55a5.24 5.24 0 0 1 -.58-5.43z"/><path d="m27 78.06a7 7 0 0 1 -7-6.53h-6a13 13 0 0 0 26 0h-6a7 7 0 0 1 -7 6.53z"/><path d="m32 71.53h-10a5 5 0 0 0 10 0z"/><path d="m37 49.88h-13.73a11.44 11.44 0 0 0 -11.27 9.61l-1.62 10h33.27l-2.98-16.49a3.75 3.75 0 0 0 -3.67-3.12z"/><path d="m71.35 67.52 5.35-13.52a16.76 16.76 0 0 0 -1.8-15.65l-5.83-8.43h-7.13l3.34 9.21a16.71 16.71 0 0 1 -.61 12.87l-6.15 13a3.19 3.19 0 0 0 2.87 4.55h7.07a3.12 3.12 0 0 0 2.89-2.03z"/><path d="m33.64 43.5h7.87a5.25 5.25 0 0 0 5-3.65 2.19 2.19 0 0 0 -2.08-2.85h-10.79a3.26 3.26 0 0 0 0 6.51z"/><path d="m61.35 22.36c3.14-1 3.55-1.2 4.22-1.2a3.07 3.07 0 0 1 .93 6l-2.21.7h5.71v-8.43l-5 .62c0-.32-.07-.3-1-1.77v.72h-2l1 1.51a3.08 3.08 0 0 0 -1.65 1.85z"/><path d="m75.56 25.86v-4.86a2 2 0 0 0 -2.23-2l-1.33.19v8.66h1.57a2 2 0 0 0 1.99-1.99z"/><path d="m54.91 16.93h7v-.58a4.38 4.38 0 0 0 -4.35-4.35h-2.65a2.48 2.48 0 1 0 0 5z"/><path d="m66.53 23.92a1 1 0 0 0 -1.28-.67l-11.36 3.63a1 1 0 0 0 .31 2c.23 0-.6.25 11.67-3.67a1 1 0 0 0 .66-1.29z"/><path d="m24.83 44.58v-22.08a1.39 1.39 0 0 0 -1.38-1.38h-4.73v12.82l-6.31-2.3-6.31 2.3v-12.82h-4.72a1.38 1.38 0 0 0 -1.38 1.38v12.5h7.18v9.63h-7.18a1.37 1.37 0 0 0 1.38 1.37h22.07a1.39 1.39 0 0 0 1.38-1.42zm-2.83-1.36h-3a.66.66 0 1 1 0-1.32h3a.66.66 0 0 1 0 1.32zm0-2.78h-3a.65.65 0 1 1 0-1.3h3a.65.65 0 0 1 0 1.3zm0-2.77h-3a.65.65 0 1 1 0-1.3h3a.65.65 0 0 1 0 1.3z"/><path d="m16.68 31.02v-9.89h-8.54v9.89l4.27-1.55z"/><path d="m0 37.02h5.14v5.54h-5.14z"/></g></svg>