<svg id="Capa_1" enable-background="new 0 0 512 512" height="512" viewBox="0 0 512 512" width="512" xmlns="http://www.w3.org/2000/svg"><g><path d="m51.943 266.264c-8.822-92.212-22.19-168.086-22.382-169.225l-29.561 5.127c.293 1.714 30 172.852 30 312.437h30c0-29.266-1.3-59.837-3.301-90h94.301v90h30c0-42.744 0-123.082 0-120 0-27.44-18.102-30-45.234-30l-58.539.015c-9.637 0-18.143.216-25.284 1.646z"/><path d="m241 384.603h-30v30h90v-30h-30v-180h120v-60h-270v60h120z"/><path d="m512 102.166-29.561-5.127c-.192 1.139-13.563 77.012-22.385 169.224-7.141-1.43-15.645-1.646-25.281-1.646l-58.539-.015c-27.133 0-45.234 2.56-45.234 30 0 5.614 0 127.795 0 120h30v-90.01h94.301c-2.001 30.164-3.301 60.745-3.301 90.011h30c0-139.585 29.707-310.723 30-312.437z"/></g></svg>